<svg width="562" height="755" viewBox="0 0 562 755" fill="none" xmlns="http://www.w3.org/2000/svg">
<defs>
<linearGradient id="paint0_linear" x1="174.5" y1="-6.10352e-05" x2="174.5" y2="754.523" gradientUnits="userSpaceOnUse">
<stop stop-color="#F08686"/>
<stop offset="1" stop-color="#B586F0"/>
</linearGradient>
<linearGradient id="paint1_linear" x1="310" y1="194" x2="336" y2="219" gradientUnits="userSpaceOnUse">
<stop stop-color="#D7CEB7"/>
<stop offset="0.166667" stop-color="#E7E1D3"/>
<stop offset="0.364583" stop-color="#BDB08F"/>
<stop offset="0.640625" stop-color="#DCD2B8"/>
<stop offset="0.880208" stop-color="#A99E82"/>
</linearGradient>
</defs>
<path d="M562 435.5C562 643.856 340.459 754.523 143.545 754.523C-53.3695 754.523 -213 585.618 -213 377.262C-213 168.906 -53.3695 -6.10352e-05 143.545 -6.10352e-05C340.459 -6.10352e-05 562 227.144 562 435.5Z" fill="url(#paint0_linear)"/>
<path d="M113.9 224.94C113.942 225.026 113.972 225.116 113.99 225.21L114.21 226.01C114.321 226.451 114.458 226.885 114.62 227.31C114.8 227.81 114.99 228.4 115.28 229.03L115.72 230.03L116.29 231.11C116.486 231.507 116.706 231.891 116.95 232.26C117.2 232.64 117.42 233.06 117.72 233.46C120.529 237.568 124.463 240.78 129.05 242.71C130.442 243.293 131.885 243.745 133.36 244.06C134.929 244.371 136.515 244.592 138.11 244.72C141.38 245.04 144.92 245.22 148.31 246.58C151.734 248.098 154.77 250.371 157.19 253.23C159.751 255.946 161.822 259.086 163.31 262.51C163.983 264.163 164.394 265.911 164.53 267.69C164.646 269.39 164.539 271.098 164.21 272.77C163.541 275.835 162.639 278.843 161.51 281.77C160.547 284.309 159.831 286.934 159.37 289.61C158.996 291.817 159.081 294.077 159.62 296.25C160.027 297.889 160.766 299.427 161.79 300.77C162.437 301.622 163.229 302.353 164.13 302.93C164.74 303.32 165.13 303.47 165.13 303.49C164.783 303.353 164.448 303.185 164.13 302.99C163.208 302.427 162.395 301.702 161.73 300.85C160.67 299.507 159.904 297.957 159.48 296.3C158.914 294.102 158.809 291.811 159.17 289.57C159.627 286.879 160.336 284.237 161.29 281.68C162.4 278.751 163.289 275.742 163.95 272.68C164.261 271.033 164.362 269.353 164.25 267.68C164.116 265.937 163.708 264.226 163.04 262.61C161.562 259.222 159.513 256.113 156.98 253.42C154.592 250.601 151.597 248.358 148.22 246.86C144.91 245.51 141.4 245.33 138.12 245C136.516 244.859 134.92 244.632 133.34 244.32C131.835 244.018 130.362 243.576 128.94 243C124.314 241.038 120.362 237.768 117.57 233.59C117.27 233.19 117.04 232.77 116.8 232.38C116.563 232.002 116.346 231.611 116.15 231.21L115.59 230.13L115.16 229.13C114.913 228.563 114.7 227.982 114.52 227.39C114.37 226.961 114.246 226.524 114.15 226.08C114.07 225.73 114 225.46 113.96 225.27C113.932 225.162 113.912 225.051 113.9 224.94Z" fill="#455A64"/>
<path d="M134.23 214.34L134.45 214.54L135.07 215.14C135.34 215.41 135.64 215.77 136.07 216.14C136.5 216.51 136.83 217.06 137.23 217.66C138.24 219.1 139.07 220.658 139.7 222.3C140.556 224.47 141.065 226.762 141.21 229.09C141.278 230.442 141.228 231.797 141.06 233.14C140.855 234.595 140.541 236.032 140.12 237.44C139.29 240.36 138.12 243.36 137.24 246.65C136.808 248.328 136.563 250.048 136.51 251.78C136.471 253.586 136.656 255.39 137.06 257.15C137.904 260.883 139.594 264.373 142 267.35C144.413 270.301 147.395 272.737 150.77 274.51C153.902 276.184 157.276 277.358 160.77 277.99C164.11 278.61 167.35 278.77 170.35 279.23C173.159 279.565 175.887 280.391 178.41 281.67C182.011 283.688 184.828 286.858 186.41 290.67C186.838 291.694 187.173 292.755 187.41 293.84C187.47 294.21 187.51 294.49 187.55 294.7C187.557 294.797 187.557 294.893 187.55 294.99C187.55 294.99 187.55 294.89 187.48 294.7C187.41 294.51 187.38 294.22 187.31 293.86C187.063 292.788 186.729 291.738 186.31 290.72C185.609 289.124 184.69 287.634 183.58 286.29C182.109 284.51 180.31 283.03 178.28 281.93C175.772 280.679 173.065 279.877 170.28 279.56C167.28 279.11 164.05 278.96 160.68 278.35C157.153 277.71 153.746 276.53 150.58 274.85C147.164 273.057 144.144 270.595 141.7 267.61C139.279 264.601 137.57 261.083 136.7 257.32C136.304 255.531 136.123 253.702 136.16 251.87C136.214 250.115 136.462 248.371 136.9 246.67C137.75 243.35 138.98 240.35 139.82 237.45C140.26 236.061 140.594 234.64 140.82 233.2C140.998 231.875 141.055 230.536 140.99 229.2C140.76 225.134 139.429 221.208 137.14 217.84C136.75 217.23 136.34 216.75 136.01 216.3C135.68 215.85 135.35 215.52 135.09 215.3L134.5 214.67C134.4 214.568 134.31 214.458 134.23 214.34Z" fill="#455A64"/>
<path d="M183.92 286C183.684 286.262 183.423 286.499 183.14 286.71C182.62 287.16 181.85 287.78 180.88 288.52C178.364 290.464 175.747 292.273 173.04 293.94C170.33 295.606 167.537 297.132 164.67 298.51C163.57 299.04 162.67 299.45 162.05 299.71C161.731 299.872 161.396 299.999 161.05 300.09C161.348 299.902 161.658 299.734 161.98 299.59L164.56 298.3C166.73 297.2 169.69 295.6 172.85 293.65C176.01 291.7 178.77 289.77 180.73 288.33L183.04 286.61C183.317 286.384 183.611 286.18 183.92 286Z" fill="#455A64"/>
<path d="M178.55 281.8C178.303 281.983 178.038 282.14 177.76 282.27L175.58 283.45C173.74 284.45 171.22 285.87 168.49 287.54C165.76 289.21 163.36 290.83 161.64 292.02L159.64 293.44C159.396 293.622 159.138 293.786 158.87 293.93C159.081 293.709 159.312 293.508 159.56 293.33C160.02 292.96 160.7 292.45 161.56 291.83C163.25 290.58 165.65 288.94 168.38 287.26C171.11 285.58 173.66 284.19 175.53 283.26C176.47 282.78 177.23 282.41 177.77 282.17C178.02 282.026 178.28 281.902 178.55 281.8Z" fill="#455A64"/>
<path d="M170.85 280.18C170.367 280.601 169.849 280.979 169.3 281.31C168.3 281.96 166.95 282.84 165.41 283.77C163.87 284.7 162.46 285.49 161.41 286.05C160.862 286.377 160.286 286.654 159.69 286.88C160.195 286.503 160.73 286.169 161.29 285.88L165.23 283.52L169.17 281.15C169.699 280.776 170.261 280.451 170.85 280.18Z" fill="#455A64"/>
<path d="M163.67 271.68C163.314 272.007 162.921 272.292 162.5 272.53L159.61 274.47L156.74 276.47C156.363 276.77 155.953 277.029 155.52 277.24C155.832 276.858 156.195 276.522 156.6 276.24C157.3 275.68 158.29 274.95 159.42 274.18C160.55 273.41 161.6 272.76 162.42 272.32C162.808 272.054 163.228 271.839 163.67 271.68Z" fill="#455A64"/>
<path d="M163.1 264.1C163.1 264.15 162.25 264.61 160.88 265.4C159.51 266.19 157.64 267.34 155.67 268.72C153.7 270.1 151.98 271.48 150.77 272.5C150.132 273.081 149.465 273.628 148.77 274.14C148.906 273.952 149.06 273.778 149.23 273.62C149.54 273.3 150.01 272.86 150.6 272.32C153.68 269.539 157.089 267.144 160.75 265.19C161.45 264.82 162.03 264.54 162.43 264.35C162.641 264.237 162.867 264.153 163.1 264.1Z" fill="#455A64"/>
<path d="M159.35 258.22C159.4 258.3 155.89 260.83 151.51 263.89C147.13 266.95 143.51 269.35 143.51 269.28C143.51 269.21 146.96 266.66 151.34 263.61C155.72 260.56 159.29 258.14 159.35 258.22Z" fill="#455A64"/>
<path d="M156.36 251.59C156.152 251.781 155.924 251.948 155.68 252.09C155.18 252.43 154.55 252.86 153.79 253.36C152.19 254.43 149.99 255.93 147.6 257.63C145.21 259.33 143.09 260.93 141.6 262.09L139.78 263.47C139.567 263.65 139.336 263.808 139.09 263.94C139.27 263.724 139.475 263.529 139.7 263.36C140.1 263.01 140.7 262.51 141.45 261.9C142.95 260.69 145.05 259.06 147.45 257.36C149.85 255.66 152.07 254.18 153.7 253.16C154.52 252.65 155.19 252.25 155.7 251.98C155.906 251.828 156.127 251.697 156.36 251.59Z" fill="#455A64"/>
<path d="M150.19 247.92C150.25 247.99 147.27 250.15 143.55 252.74C139.83 255.33 136.76 257.35 136.7 257.28C136.64 257.21 139.63 255.04 143.35 252.46C147.07 249.88 150.14 247.84 150.19 247.92Z" fill="#455A64"/>
<path d="M143.72 244.22C142.66 245.293 141.517 246.279 140.3 247.17C139.158 248.155 137.944 249.054 136.67 249.86C137.734 248.776 138.877 247.774 140.09 246.86C141.234 245.893 142.447 245.01 143.72 244.22Z" fill="#455A64"/>
<path d="M139.36 234.93C138.915 235.423 138.426 235.875 137.9 236.28C136.97 237.07 135.65 238.14 134.15 239.28C132.65 240.42 131.26 241.36 130.23 242.03C129.694 242.419 129.121 242.754 128.52 243.03C129.015 242.587 129.543 242.182 130.1 241.82C131.1 241.1 132.46 240.11 133.95 239C135.44 237.89 136.78 236.85 137.75 236.1C138.255 235.668 138.793 235.276 139.36 234.93Z" fill="#455A64"/>
<path d="M141.24 228.61C141.036 228.807 140.811 228.981 140.57 229.13C140.14 229.45 139.49 229.89 138.69 230.42C137.08 231.49 134.82 232.92 132.27 234.42C129.72 235.92 127.35 237.14 125.62 238C124.76 238.43 124.05 238.77 123.56 239C123.313 239.136 123.051 239.243 122.78 239.32C123.006 239.155 123.247 239.011 123.5 238.89L125.5 237.8C127.2 236.89 129.5 235.61 132.09 234.13C134.68 232.65 136.91 231.27 138.55 230.25L140.49 229.05C140.722 228.875 140.974 228.727 141.24 228.61Z" fill="#455A64"/>
<path d="M138.24 221.86C138.012 222.063 137.768 222.247 137.51 222.41C137.03 222.75 136.33 223.23 135.45 223.82C133.7 224.98 131.26 226.56 128.53 228.25C125.8 229.94 123.31 231.42 121.53 232.46C120.62 232.98 119.88 233.4 119.36 233.68C119.098 233.835 118.824 233.969 118.54 234.08C118.773 233.883 119.024 233.709 119.29 233.56L121.41 232.25L128.41 227.96L135.41 223.62L137.53 222.3C137.752 222.131 137.99 221.984 138.24 221.86Z" fill="#455A64"/>
<path d="M401.36 421.21C401.31 421.26 400.57 420.52 399.13 419.29C398.41 418.68 397.52 417.94 396.44 417.15C395.222 416.255 393.938 415.453 392.6 414.75C391.828 414.354 391.025 414.019 390.2 413.75C389.335 413.434 388.421 413.272 387.5 413.27C387.045 413.27 386.596 413.376 386.19 413.58C385.792 413.787 385.475 414.121 385.29 414.53C385.096 414.978 385.004 415.463 385.02 415.95C385.029 416.476 385.096 416.999 385.22 417.51C385.488 418.594 385.877 419.644 386.38 420.64C386.907 421.699 387.498 422.724 388.15 423.71C390.951 427.847 394.458 431.459 398.51 434.38C399.468 435.066 400.47 435.687 401.51 436.24C402.492 436.777 403.532 437.2 404.61 437.5C405.116 437.641 405.636 437.725 406.16 437.75C406.644 437.778 407.129 437.7 407.58 437.52C408.002 437.352 408.355 437.045 408.58 436.65C408.794 436.249 408.913 435.804 408.93 435.35C408.959 434.427 408.824 433.506 408.53 432.63C408.258 431.796 407.923 430.984 407.53 430.2C406.863 428.843 406.097 427.536 405.24 426.29C404.48 425.19 403.78 424.29 403.18 423.54C402 422.07 401.28 421.3 401.33 421.25C401.38 421.2 401.55 421.4 401.92 421.75C402.29 422.1 402.8 422.62 403.43 423.33C404.205 424.189 404.936 425.087 405.62 426.02C406.536 427.26 407.352 428.571 408.06 429.94C408.467 430.748 408.818 431.584 409.11 432.44C409.446 433.404 409.605 434.42 409.58 435.44C409.569 436.002 409.425 436.554 409.16 437.05C408.872 437.581 408.415 438.001 407.86 438.24C407.31 438.47 406.716 438.576 406.12 438.55C405.536 438.532 404.955 438.448 404.39 438.3C403.255 437.991 402.158 437.555 401.12 437C400.036 436.405 398.993 435.737 398 435C393.846 432.037 390.264 428.343 387.43 424.1C386.756 423.089 386.151 422.033 385.62 420.94C385.101 419.884 384.702 418.774 384.43 417.63C384.294 417.064 384.227 416.483 384.23 415.9C384.214 415.303 384.337 414.711 384.59 414.17C384.846 413.621 385.279 413.174 385.82 412.9C386.324 412.654 386.879 412.527 387.44 412.53C388.445 412.54 389.441 412.73 390.38 413.09C391.227 413.404 392.049 413.782 392.84 414.22C394.186 414.966 395.47 415.819 396.68 416.77C397.75 417.61 398.62 418.38 399.31 419.04C400 419.7 400.51 420.23 400.84 420.6C401.17 420.97 401.38 421.19 401.36 421.21Z" fill="#00A5F3"/>
<path d="M391.77 423.61C391.83 423.61 391.54 424.61 391.16 426.39C390.97 427.29 390.76 428.39 390.59 429.67C390.396 431.118 390.316 432.579 390.35 434.04C390.369 434.882 390.456 435.722 390.61 436.55C390.755 437.43 391.057 438.276 391.5 439.05C391.726 439.429 392.034 439.753 392.4 440C392.765 440.237 393.195 440.356 393.63 440.34C394.106 440.327 394.573 440.211 395 440C395.453 439.768 395.876 439.483 396.26 439.15C397.078 438.442 397.812 437.644 398.45 436.77C399.124 435.849 399.736 434.883 400.28 433.88C402.552 429.616 404.026 424.973 404.63 420.18C404.76 419.048 404.817 417.909 404.8 416.77C404.784 415.688 404.646 414.611 404.39 413.56C404.26 413.069 404.079 412.593 403.85 412.14C403.638 411.72 403.338 411.352 402.97 411.06C402.626 410.791 402.206 410.637 401.77 410.62C401.329 410.612 400.892 410.7 400.49 410.88C399.683 411.255 398.948 411.77 398.32 412.4C397.718 412.992 397.163 413.631 396.66 414.31C395.776 415.475 394.987 416.709 394.3 418C393.7 419.14 393.24 420.16 392.88 421C392.16 422.69 391.83 423.65 391.77 423.63C391.779 423.38 391.829 423.133 391.92 422.9C392.05 422.43 392.26 421.75 392.57 420.9C392.88 420.05 393.31 418.99 393.88 417.81C394.527 416.465 395.287 415.177 396.15 413.96C396.653 413.245 397.219 412.575 397.84 411.96C398.512 411.251 399.309 410.672 400.19 410.25C400.683 410.027 401.219 409.914 401.76 409.92C402.345 409.935 402.911 410.13 403.38 410.48C403.836 410.834 404.211 411.28 404.48 411.79C404.747 412.291 404.955 412.821 405.1 413.37C405.384 414.475 405.539 415.609 405.56 416.75C405.594 417.929 405.544 419.108 405.41 420.28C404.827 425.186 403.317 429.937 400.96 434.28C400.395 435.324 399.757 436.326 399.05 437.28C398.374 438.199 397.592 439.034 396.72 439.77C396.287 440.133 395.814 440.445 395.31 440.7C394.796 440.967 394.229 441.117 393.65 441.14C393.068 441.154 392.496 440.99 392.01 440.67C391.564 440.359 391.189 439.957 390.91 439.49C390.436 438.637 390.121 437.705 389.98 436.74C389.831 435.878 389.757 435.005 389.76 434.13C389.753 432.635 389.877 431.143 390.13 429.67C390.31 428.565 390.547 427.47 390.84 426.39C391.08 425.5 391.31 424.82 391.47 424.39C391.521 424.114 391.623 423.849 391.77 423.61Z" fill="#00A5F3"/>
<path d="M395.05 419C395.05 419.07 394.05 419.33 392.36 419.95C391.5 420.26 390.46 420.66 389.27 421.19C387.937 421.788 386.653 422.49 385.43 423.29C384.72 423.745 384.051 424.26 383.43 424.83C382.757 425.412 382.198 426.114 381.78 426.9C381.575 427.29 381.459 427.72 381.44 428.16C381.431 428.599 381.56 429.029 381.81 429.39C382.069 429.774 382.41 430.096 382.81 430.33C383.245 430.59 383.708 430.801 384.19 430.96C385.224 431.277 386.291 431.478 387.37 431.56C388.509 431.635 389.651 431.635 390.79 431.56C393.197 431.418 395.584 431.047 397.92 430.45C400.26 429.866 402.541 429.063 404.73 428.05C405.764 427.565 406.766 427.014 407.73 426.4C408.642 425.834 409.484 425.163 410.24 424.4C410.595 424.036 410.904 423.63 411.16 423.19C411.408 422.793 411.565 422.345 411.62 421.88C411.665 421.448 411.578 421.012 411.37 420.63C411.145 420.236 410.838 419.895 410.47 419.63C409.723 419.153 408.896 418.815 408.03 418.63C407.212 418.428 406.379 418.291 405.54 418.22C404.082 418.106 402.618 418.106 401.16 418.22C399.87 418.32 398.76 418.46 397.85 418.59C396.05 418.87 395.06 419.1 395.04 419.03C395.259 418.911 395.495 418.827 395.74 418.78C396.2 418.64 396.89 418.46 397.8 418.27C398.71 418.08 399.8 417.9 401.12 417.76C402.604 417.602 404.1 417.569 405.59 417.66C406.462 417.712 407.329 417.84 408.18 418.04C409.138 418.234 410.051 418.607 410.87 419.14C411.322 419.439 411.701 419.835 411.98 420.3C412.276 420.804 412.406 421.388 412.35 421.97C412.299 422.546 412.117 423.104 411.82 423.6C411.539 424.086 411.203 424.539 410.82 424.95C410.028 425.777 409.142 426.509 408.18 427.13C407.193 427.775 406.164 428.353 405.1 428.86C402.852 429.907 400.507 430.734 398.1 431.33C395.712 431.939 393.27 432.311 390.81 432.44C389.633 432.505 388.454 432.485 387.28 432.38C386.141 432.29 385.016 432.065 383.93 431.71C383.39 431.535 382.873 431.297 382.39 431C381.898 430.698 381.476 430.296 381.15 429.82C380.832 429.333 380.672 428.761 380.69 428.18C380.715 427.634 380.862 427.101 381.12 426.62C381.592 425.768 382.215 425.008 382.96 424.38C383.62 423.804 384.326 423.283 385.07 422.82C386.345 422.043 387.683 421.374 389.07 420.82C390.107 420.393 391.165 420.019 392.24 419.7C393.12 419.44 393.82 419.27 394.29 419.17C394.532 419.073 394.789 419.015 395.05 419Z" fill="#00A5F3"/>
<path d="M400.09 424.77C400.219 425.284 400.192 425.825 400.013 426.324C399.834 426.823 399.511 427.258 399.086 427.573C398.66 427.889 398.15 428.071 397.62 428.097C397.091 428.123 396.566 427.991 396.111 427.718C395.657 427.445 395.293 427.044 395.067 426.565C394.84 426.085 394.761 425.55 394.839 425.026C394.917 424.501 395.149 424.012 395.505 423.619C395.861 423.227 396.326 422.949 396.84 422.82C397.529 422.65 398.258 422.76 398.867 423.125C399.476 423.491 399.915 424.082 400.09 424.77Z" fill="#C96666"/>
<path d="M454.72 378.86L454.42 378.72L453.55 378.28L450.2 376.54L437.89 370.07H438L400.08 384.56L399.74 384.69L399.84 384.34L401 380.15C403.65 370.59 406.16 361.54 408.36 353.58V353.52L429.36 337.78L435.36 333.34L436.95 332.17L437.36 331.88C437.447 331.807 437.497 331.777 437.51 331.79L437.38 331.9L436.98 332.22L435.42 333.42L429.5 337.93L408.56 353.78L408.62 353.69C406.42 361.69 403.93 370.69 401.29 380.28C400.89 381.71 400.5 383.14 400.13 384.47L399.89 384.25L437.89 369.86H437.95L450.2 376.43L453.51 378.22L454.37 378.7L454.72 378.86Z" fill="#008EA3"/>
<path d="M404.95 384.1L402.68 384.77L401.95 387.02L400.61 385.07H398.24L399.68 383.19L398.95 380.94L401.18 381.73L403.09 380.34L403.03 382.71L404.95 384.1Z" fill="#008EA3"/>
<path d="M411.5 352.85L410.07 353.37L409.68 354.85L408.74 353.65L407.21 353.74L408.07 352.47L407.51 351.05L408.98 351.47L410.16 350.5L410.21 352.03L411.5 352.85Z" fill="#008EA3"/>
<path d="M440.21 330.82L439.17 332.39L439.86 334.13L438.05 333.62L436.61 334.82L436.53 332.94L434.95 331.94L436.71 331.29L437.17 329.47L438.34 330.94L440.21 330.82Z" fill="#008EA3"/>
<path d="M457.02 376.88L455.97 378.45L456.67 380.19L454.86 379.68L453.41 380.88L453.34 379L451.75 378L453.51 377.35L453.98 375.53L455.14 377L457.02 376.88Z" fill="#008EA3"/>
<path d="M439.38 369.17L438.71 370.17L439.16 371.28L438 370.95L437.08 371.72L437.04 370.52L436.02 369.88L437.15 369.46L437.44 368.3L438.19 369.25L439.38 369.17Z" fill="#008EA3"/>
<path d="M341.47 210.228C343.178 199.763 336.079 189.894 325.613 188.186C315.148 186.478 305.279 193.577 303.571 204.042C301.863 214.508 308.962 224.376 319.428 226.084C329.893 227.793 339.762 220.693 341.47 210.228Z" fill="url(#paint1_linear)"/>
<g opacity="0.3">
<path opacity="0.3" d="M320 213.14C320 213.759 319.816 214.364 319.472 214.879C319.129 215.394 318.64 215.795 318.068 216.032C317.496 216.269 316.867 216.331 316.259 216.21C315.652 216.089 315.094 215.791 314.657 215.353C314.219 214.916 313.921 214.358 313.8 213.751C313.679 213.143 313.741 212.514 313.978 211.942C314.215 211.37 314.616 210.881 315.131 210.538C315.646 210.194 316.251 210.01 316.87 210.01C317.7 210.01 318.496 210.34 319.083 210.927C319.67 211.514 320 212.31 320 213.14Z" fill="white"/>
</g>
<g opacity="0.3">
<path opacity="0.3" d="M315.6 204.1C315.6 204.46 315.493 204.812 315.293 205.111C315.093 205.41 314.809 205.644 314.476 205.781C314.144 205.919 313.778 205.955 313.425 205.885C313.072 205.815 312.748 205.641 312.493 205.387C312.239 205.132 312.065 204.808 311.995 204.455C311.925 204.102 311.961 203.736 312.099 203.404C312.236 203.071 312.47 202.787 312.769 202.587C313.068 202.387 313.42 202.28 313.78 202.28C314.263 202.28 314.726 202.472 315.067 202.813C315.408 203.154 315.6 203.617 315.6 204.1Z" fill="white"/>
</g>
<path d="M303.91 211.82C304 212.15 287.48 228 291.74 231.38C296 234.76 313.91 226.09 329.18 213.76C344.45 201.43 358.39 186.45 354.57 182.49C350.75 178.53 331.68 190.26 331.68 190.26L334 191.71C334 191.71 345.53 184.31 349.18 187.18C352.83 190.05 342.43 201.28 327.75 212C313.07 222.72 298.88 230.24 296.68 227.3C294.48 224.36 304.87 214.57 304.87 214.57L303.91 211.82Z" fill="#938569"/>
<g opacity="0.3">
<path opacity="0.3" d="M303.91 211.82C304 212.15 287.48 228 291.74 231.38C296 234.76 313.91 226.09 329.18 213.76C344.45 201.43 358.39 186.45 354.57 182.49C350.75 178.53 331.68 190.26 331.68 190.26L334 191.71C334 191.71 345.53 184.31 349.18 187.18C352.83 190.05 342.43 201.28 327.75 212C313.07 222.72 298.88 230.24 296.68 227.3C294.48 224.36 304.87 214.57 304.87 214.57L303.91 211.82Z" fill="#C1AB7E"/>
</g>
<g opacity="0.3">
<path opacity="0.3" d="M312 193.62C312.15 193.81 310.85 194.91 309.38 197.13C307.426 199.976 306.349 203.331 306.279 206.782C306.21 210.233 307.152 213.628 308.99 216.55C310.38 218.82 311.63 219.98 311.47 220.16C311.31 220.34 309.83 219.4 308.12 217.16C307.13 215.827 306.345 214.355 305.79 212.79C304.372 208.9 304.457 204.62 306.03 200.79C306.645 199.25 307.488 197.81 308.53 196.52C310.29 194.32 311.87 193.49 312 193.62Z" fill="white"/>
</g>
<path d="M351.58 224.07C351.632 221.865 352.337 219.725 353.605 217.921C354.873 216.117 356.648 214.729 358.705 213.934C360.762 213.138 363.009 212.971 365.161 213.452C367.313 213.934 369.274 215.043 370.796 216.639C372.318 218.235 373.333 220.246 373.711 222.419C374.09 224.592 373.816 226.828 372.923 228.845C372.031 230.861 370.561 232.568 368.698 233.749C366.836 234.931 364.665 235.533 362.46 235.48C359.504 235.409 356.698 234.168 354.657 232.028C352.617 229.888 351.51 227.026 351.58 224.07Z" fill="white"/>
<g opacity="0.4">
<path opacity="0.4" d="M366.36 220.07C366.368 219.71 366.483 219.36 366.69 219.065C366.897 218.77 367.187 218.543 367.523 218.413C367.859 218.283 368.226 218.256 368.578 218.335C368.929 218.414 369.25 218.595 369.498 218.856C369.746 219.117 369.912 219.446 369.973 219.801C370.034 220.156 369.989 220.521 369.842 220.851C369.696 221.18 369.455 221.458 369.15 221.65C368.845 221.843 368.49 221.94 368.13 221.93C367.892 221.925 367.656 221.873 367.438 221.776C367.22 221.68 367.023 221.541 366.858 221.368C366.694 221.195 366.565 220.992 366.48 220.769C366.394 220.546 366.353 220.309 366.36 220.07Z" fill="black"/>
</g>
<g opacity="0.4">
<path opacity="0.4" d="M370 224.31C370.006 224.099 370.075 223.895 370.198 223.724C370.321 223.553 370.492 223.422 370.69 223.348C370.887 223.275 371.102 223.262 371.307 223.311C371.512 223.36 371.698 223.47 371.841 223.625C371.983 223.78 372.076 223.975 372.108 224.183C372.139 224.392 372.108 224.605 372.018 224.795C371.927 224.986 371.782 225.145 371.601 225.253C371.42 225.361 371.21 225.412 371 225.4C370.725 225.382 370.468 225.259 370.281 225.056C370.095 224.853 369.994 224.585 370 224.31Z" fill="black"/>
</g>
<g opacity="0.4">
<path opacity="0.4" d="M368.57 227.56C368.674 227.563 368.774 227.606 368.846 227.681C368.919 227.755 368.96 227.856 368.96 227.96C368.959 228.011 368.947 228.062 368.926 228.109C368.906 228.155 368.876 228.198 368.839 228.233C368.802 228.268 368.758 228.296 368.71 228.314C368.662 228.333 368.611 228.341 368.56 228.34C368.508 228.34 368.457 228.33 368.41 228.309C368.362 228.289 368.32 228.259 368.284 228.222C368.248 228.184 368.221 228.14 368.203 228.092C368.185 228.043 368.177 227.992 368.18 227.94C368.183 227.838 368.225 227.742 368.298 227.671C368.371 227.6 368.468 227.56 368.57 227.56Z" fill="black"/>
</g>
<path d="M397.62 307.25C397.52 307.25 397.45 293.13 397.45 275.72C397.45 258.31 397.52 244.19 397.62 244.19C397.72 244.19 397.79 258.3 397.79 275.72C397.79 293.14 397.71 307.25 397.62 307.25Z" fill="#263238"/>
<path d="M399.5 244.73C398.696 243.565 397.981 242.342 397.36 241.07H397.66V241.15C397.144 242.502 396.533 243.815 395.83 245.08C396.224 243.687 396.733 242.329 397.35 241.02V240.94L397.49 240.62L397.65 240.92C398.368 242.138 398.986 243.413 399.5 244.73Z" fill="#263238"/>
<path d="M397.27 236.74C397.21 236.81 396.69 236.47 396.27 235.84C395.85 235.21 395.75 234.6 395.84 234.58C395.93 234.56 396.17 235.08 396.55 235.66C396.93 236.24 397.33 236.67 397.27 236.74Z" fill="#263238"/>
<path d="M396.28 238.56C396.47 237.785 396.738 237.031 397.08 236.31C397.308 235.546 397.616 234.809 398 234.11C397.939 234.914 397.732 235.7 397.39 236.43C397.154 237.202 396.778 237.924 396.28 238.56Z" fill="#263238"/>
<path d="M393.1 252.49C393.328 251.854 393.522 251.207 393.68 250.55C393.714 249.884 393.714 249.216 393.68 248.55C394.035 249.182 394.139 249.925 393.97 250.63C393.921 251.337 393.611 252 393.1 252.49Z" fill="#263238"/>
<path d="M393.72 249.86C393.72 249.86 393.64 250.13 393.24 250.23C393.003 250.28 392.756 250.237 392.55 250.11C392.428 250.022 392.328 249.909 392.256 249.777C392.184 249.645 392.143 249.499 392.135 249.349C392.127 249.199 392.153 249.05 392.211 248.911C392.269 248.773 392.358 248.65 392.47 248.55C392.667 248.41 392.909 248.346 393.15 248.37C393.56 248.37 393.7 248.67 393.66 248.69C393.62 248.71 393.45 248.59 393.14 248.61C393.047 248.608 392.954 248.626 392.868 248.662C392.782 248.698 392.705 248.752 392.641 248.82C392.577 248.888 392.528 248.968 392.497 249.056C392.465 249.144 392.453 249.237 392.46 249.33C392.464 249.423 392.486 249.515 392.526 249.599C392.567 249.684 392.623 249.759 392.694 249.821C392.764 249.882 392.846 249.929 392.934 249.958C393.023 249.987 393.117 249.998 393.21 249.99C393.52 250 393.68 249.82 393.72 249.86Z" fill="#263238"/>
<path d="M446.71 302.77C446.71 302.86 434.63 302.94 419.71 302.94C404.79 302.94 392.71 302.86 392.71 302.77C392.71 302.68 404.78 302.6 419.71 302.6C434.64 302.6 446.71 302.68 446.71 302.77Z" fill="#263238"/>
<path d="M447.26 302.7C446.477 302.578 445.715 302.342 445 302C444.257 301.766 443.55 301.43 442.9 301C443.671 301.125 444.419 301.365 445.12 301.71C445.878 301.934 446.599 302.268 447.26 302.7Z" fill="#263238"/>
<path d="M447.85 302.9C446.711 303.548 445.464 303.985 444.17 304.19C444.72 303.83 445.325 303.56 445.96 303.39C446.557 303.118 447.196 302.952 447.85 302.9Z" fill="#263238"/>
<path d="M395.08 304.48C395.267 304.609 395.426 304.775 395.546 304.967C395.667 305.16 395.746 305.375 395.78 305.6C395.9 306.089 395.861 306.604 395.67 307.07C395.559 307.358 395.373 307.61 395.13 307.8C394.981 307.896 394.807 307.948 394.63 307.948C394.453 307.948 394.279 307.896 394.13 307.8C393.875 307.612 393.671 307.363 393.535 307.077C393.399 306.791 393.335 306.476 393.35 306.16C393.343 305.904 393.393 305.65 393.497 305.417C393.6 305.183 393.755 304.976 393.95 304.81C394.08 304.698 394.231 304.612 394.394 304.559C394.557 304.506 394.729 304.486 394.9 304.5C395.14 304.5 395.25 304.61 395.24 304.62C395.23 304.63 395.11 304.62 394.9 304.62C394.603 304.647 394.325 304.774 394.11 304.98C393.956 305.129 393.836 305.311 393.758 305.511C393.68 305.711 393.647 305.926 393.66 306.14C393.654 306.401 393.708 306.659 393.819 306.896C393.93 307.132 394.095 307.339 394.3 307.5C394.398 307.563 394.513 307.597 394.63 307.597C394.747 307.597 394.861 307.563 394.96 307.5C395.158 307.349 395.313 307.149 395.41 306.92C395.585 306.511 395.641 306.06 395.57 305.62C395.466 305.217 395.3 304.833 395.08 304.48Z" fill="#263238"/>
<path d="M439 305.19C439 305.19 439.19 305.08 439.45 305.3C439.527 305.367 439.587 305.45 439.627 305.544C439.667 305.637 439.685 305.738 439.68 305.84C439.655 306.1 439.542 306.343 439.36 306.53C438.98 306.95 438.28 307.11 437.96 307.62C437.886 307.753 437.848 307.903 437.848 308.055C437.848 308.207 437.886 308.357 437.96 308.49C438.043 308.63 438.165 308.742 438.31 308.815C438.455 308.888 438.618 308.917 438.78 308.9C438.943 308.886 439.098 308.824 439.225 308.72C439.352 308.617 439.444 308.477 439.49 308.32C439.538 308.174 439.548 308.018 439.518 307.868C439.488 307.717 439.42 307.577 439.32 307.46C439.118 307.226 438.874 307.033 438.6 306.89C438.451 306.835 438.316 306.746 438.205 306.632C438.095 306.518 438.011 306.381 437.96 306.23C437.93 306.1 437.93 305.966 437.96 305.836C437.989 305.706 438.047 305.584 438.13 305.48C438.248 305.33 438.403 305.213 438.58 305.14C438.87 305.04 439.04 305.06 439.05 305.08C439.06 305.1 438.89 305.08 438.64 305.26C438.495 305.339 438.371 305.452 438.28 305.59C438.223 305.674 438.185 305.769 438.169 305.87C438.154 305.97 438.161 306.073 438.19 306.17C438.29 306.6 439.09 306.66 439.56 307.27C439.695 307.427 439.788 307.616 439.83 307.819C439.872 308.022 439.862 308.232 439.8 308.43C439.731 308.648 439.6 308.84 439.422 308.982C439.244 309.125 439.027 309.211 438.8 309.23C438.575 309.254 438.348 309.213 438.146 309.112C437.944 309.011 437.775 308.854 437.66 308.66C437.557 308.477 437.502 308.27 437.502 308.06C437.502 307.85 437.557 307.643 437.66 307.46C437.864 307.174 438.14 306.946 438.46 306.8C438.706 306.68 438.938 306.533 439.15 306.36C439.309 306.219 439.414 306.029 439.45 305.82C439.458 305.743 439.451 305.666 439.428 305.592C439.406 305.518 439.369 305.449 439.32 305.39C439.2 305.19 439 305.22 439 305.19Z" fill="#263238"/>
<path d="M438.86 303.93C438.63 302.943 438.63 301.917 438.86 300.93C439.09 301.917 439.09 302.943 438.86 303.93Z" fill="#263238"/>
<path d="M453.29 302.83C452.995 302.935 452.683 302.983 452.37 302.97L451.37 303.03C451.295 303.055 451.215 303.055 451.14 303.03C451.091 302.999 451.054 302.953 451.032 302.899C451.011 302.845 451.006 302.786 451.02 302.73C451.054 302.604 451.128 302.492 451.23 302.41L451.67 301.95C451.97 301.717 452.167 301.376 452.22 301C452.229 300.865 452.192 300.73 452.116 300.618C452.04 300.506 451.929 300.422 451.8 300.38C451.597 300.355 451.391 300.394 451.21 300.49C451.06 300.55 450.98 300.59 450.96 300.57C450.94 300.55 451.01 300.48 451.14 300.38C451.334 300.213 451.584 300.128 451.84 300.14C452.039 300.18 452.218 300.289 452.344 300.449C452.47 300.608 452.536 300.807 452.53 301.01C452.493 301.464 452.277 301.885 451.93 302.18L451.47 302.63C451.39 302.7 451.33 302.77 451.33 302.8H451.39H452.39C452.69 302.76 452.994 302.77 453.29 302.83Z" fill="#263238"/>
<path d="M404.8 302.77C404.8 302.77 404.8 302.43 404.8 301.84C404.8 301.25 404.8 300.38 404.75 299.37C404.75 297.27 404.69 294.37 404.68 291.05L404.84 291.22H401.71L401.88 291.05V294.52C401.88 295.63 401.88 296.69 401.88 297.69C401.88 299.69 401.88 301.39 401.83 302.76L401.73 302.66L404.01 302.71C404.55 302.71 404.85 302.71 404.86 302.76C404.597 302.777 404.333 302.777 404.07 302.76L401.73 302.81H401.63V302.71C401.63 301.34 401.63 299.62 401.63 297.64C401.63 296.64 401.63 295.58 401.63 294.47V291L401.8 290.83H405V290.99C405 294.38 405 297.33 404.92 299.42C404.92 300.42 404.92 301.24 404.92 301.86C404.906 302.166 404.866 302.471 404.8 302.77Z" fill="#263238"/>
<path d="M434.65 302.77C434.638 302.65 434.638 302.53 434.65 302.41C434.65 302.15 434.65 301.83 434.65 301.41C434.65 300.51 434.65 299.29 434.6 297.78C434.6 294.72 434.54 290.48 434.53 285.67L434.7 285.83H431.56L431.73 285.67V288.31C431.73 289.18 431.73 290.03 431.73 290.86C431.73 292.53 431.73 294.1 431.73 295.57C431.73 298.47 431.68 300.93 431.67 302.73L431.58 302.64H433.87H434.49H434.72C434.457 302.658 434.193 302.658 433.93 302.64L431.58 302.69H431.49V302.6C431.49 300.8 431.49 298.34 431.43 295.44C431.43 293.97 431.43 292.44 431.43 290.73C431.43 289.9 431.43 289.05 431.43 288.18V285.54L431.6 285.37H434.9V285.54C434.9 290.42 434.9 294.72 434.83 297.77C434.83 299.26 434.83 300.47 434.78 301.36C434.78 301.74 434.78 302.06 434.78 302.36C434.78 302.66 434.65 302.78 434.65 302.77Z" fill="#263238"/>
<path d="M412.35 302.77C412.338 302.624 412.338 302.476 412.35 302.33C412.35 302.01 412.35 301.6 412.35 301.09C412.35 300 412.35 298.47 412.3 296.57C412.3 292.74 412.3 287.45 412.23 281.48L412.4 281.65H409.26C409.6 281.31 409.35 281.56 409.43 281.49V284.87C409.43 285.98 409.43 287.06 409.43 288.12C409.43 290.23 409.43 292.22 409.43 294.05C409.43 297.69 409.38 300.69 409.36 302.77L409.28 302.69H411.59H412.2H412.42H412.23H411.63H409.28H409.2V302.61C409.2 300.53 409.2 297.53 409.14 293.89C409.14 292.06 409.14 290.07 409.14 287.96C409.14 286.9 409.14 285.82 409.14 284.71V281.33C409.22 281.25 408.97 281.49 409.31 281.15H412.61V281.31C412.61 287.31 412.56 292.66 412.54 296.52C412.54 298.4 412.54 299.92 412.49 301C412.49 301.5 412.49 301.9 412.49 302.2C412.49 302.5 412.35 302.78 412.35 302.77Z" fill="#263238"/>
<path d="M419.73 302.7C419.726 302.643 419.726 302.587 419.73 302.53V302C419.73 301.54 419.73 300.9 419.73 300.09C419.73 298.42 419.73 296.03 419.68 293.09C419.68 287.15 419.63 278.94 419.6 269.72L419.77 269.89H416.6L416.76 269.73V280.3C416.76 283.64 416.76 286.78 416.76 289.64C416.76 295.32 416.7 299.87 416.68 302.64L416.62 302.58H418.93H419.75C419.75 302.58 419.69 302.58 419.56 302.58H419H416.65H416.58V302.51C416.58 299.69 416.58 295.14 416.51 289.51C416.51 286.65 416.51 283.51 416.51 280.17C416.51 278.49 416.51 276.77 416.51 275V269.6C416.58 269.52 416.34 269.76 416.68 269.42H419.98V269.59C419.98 278.85 419.98 287.11 419.91 293.08C419.91 296.02 419.91 298.4 419.86 300.08C419.86 300.88 419.86 301.51 419.86 301.96V302.44C419.74 302.66 419.74 302.71 419.73 302.7Z" fill="#263238"/>
<path d="M427.3 302.7C427.3 302.7 427.3 302.6 427.3 302.41C427.3 302.22 427.3 301.92 427.3 301.56C427.3 300.81 427.3 299.72 427.3 298.33C427.3 295.52 427.3 291.46 427.25 286.45C427.25 276.45 427.25 262.52 427.18 247.02L427.35 247.19H424.21C424.54 246.86 424.31 247.11 424.38 247.04V256.61C424.38 259.73 424.38 262.77 424.38 265.7C424.38 271.57 424.38 277.01 424.38 281.88C424.38 291.58 424.31 298.95 424.29 302.7H426.64H427.43C427.43 302.7 427.37 302.7 427.24 302.7H426.67H424.29H424.24V302.64C424.24 298.89 424.19 291.52 424.16 281.82C424.16 276.95 424.16 271.51 424.16 265.64C424.16 262.71 424.16 259.64 424.16 256.55V247C424.24 246.92 423.99 247.15 424.33 246.81H427.63V247C427.63 262.55 427.63 276.48 427.56 286.55C427.56 291.55 427.56 295.55 427.51 298.39C427.51 299.77 427.51 300.84 427.51 301.59C427.51 301.94 427.51 302.21 427.51 302.41C427.51 302.61 427.3 302.71 427.3 302.7Z" fill="#263238"/>
<path d="M91.6 306L94.27 352.83L172.62 348.36L91.6 306ZM104.69 324.17L138.39 342.17L105.82 344L104.69 324.17Z" fill="#E9F8FA"/>
<path d="M99.38 310.09C99.1303 311.122 98.7113 312.105 98.14 313C97.7184 313.981 97.1334 314.884 96.41 315.67C96.6548 314.627 97.0741 313.633 97.65 312.73C98.0771 311.761 98.6617 310.869 99.38 310.09Z" fill="#263238"/>
<path d="M111.4 316.3C111.15 317.319 110.731 318.289 110.16 319.17C109.746 320.127 109.167 321.004 108.45 321.76C108.692 320.74 109.108 319.769 109.68 318.89C110.092 317.93 110.675 317.052 111.4 316.3Z" fill="#263238"/>
<path d="M123.41 322.51C123.061 323.493 122.547 324.41 121.89 325.22C121.377 326.136 120.699 326.95 119.89 327.62C120.237 326.633 120.751 325.713 121.41 324.9C121.929 323.99 122.606 323.181 123.41 322.51Z" fill="#263238"/>
<path d="M135.23 329C134.893 329.991 134.378 330.913 133.71 331.72C133.185 332.628 132.508 333.44 131.71 334.12C132.047 333.129 132.562 332.207 133.23 331.4C133.755 330.492 134.432 329.68 135.23 329Z" fill="#263238"/>
<path d="M147.57 335.33C147.277 336.365 146.811 337.342 146.19 338.22C145.726 339.183 145.104 340.062 144.35 340.82C145.093 338.815 146.183 336.957 147.57 335.33Z" fill="#263238"/>
<path d="M160.38 342C160.144 342.98 159.73 343.909 159.16 344.74C158.744 345.657 158.168 346.494 157.46 347.21C157.702 346.227 158.118 345.295 158.69 344.46C159.096 343.542 159.669 342.708 160.38 342Z" fill="#263238"/>
<path d="M103.13 312.05C103.26 312.13 103.04 312.81 102.63 313.59C102.22 314.37 101.78 314.92 101.63 314.85C101.48 314.78 101.72 314.09 102.13 313.32C102.54 312.55 103 312 103.13 312.05Z" fill="#263238"/>
<path d="M107.06 314C107.2 314.07 106.97 314.76 106.56 315.53C106.15 316.3 105.72 316.87 105.56 316.8C105.4 316.73 105.66 316.04 106.06 315.26C106.46 314.48 106.93 313.94 107.06 314Z" fill="#263238"/>
<path d="M115.83 318.65C115.96 318.73 115.74 319.41 115.33 320.19C114.92 320.97 114.48 321.53 114.33 321.45C114.18 321.37 114.42 320.69 114.83 319.92C115.24 319.15 115.7 318.58 115.83 318.65Z" fill="#263238"/>
<path d="M119.77 320.62C119.9 320.69 119.68 321.38 119.27 322.15C118.86 322.92 118.42 323.49 118.27 323.42C118.12 323.35 118.36 322.66 118.77 321.88C119.18 321.1 119.63 320.55 119.77 320.62Z" fill="#263238"/>
<path d="M127.7 325.06C127.84 325.13 127.61 325.82 127.2 326.59C126.79 327.36 126.36 327.93 126.2 327.86C126.04 327.79 126.29 327.1 126.7 326.32C127.11 325.54 127.57 325 127.7 325.06Z" fill="#263238"/>
<path d="M131.46 327C131.6 327.07 131.37 327.76 130.96 328.53C130.55 329.3 130.12 329.87 129.96 329.8C129.8 329.73 130.05 329.03 130.46 328.26C130.87 327.49 131.33 327 131.46 327Z" fill="#263238"/>
<path d="M139.57 331.24C139.7 331.32 139.48 332 139.07 332.78C138.66 333.56 138.23 334.11 138.07 334.04C137.91 333.97 138.16 333.28 138.57 332.51C138.98 331.74 139.44 331.17 139.57 331.24Z" fill="#263238"/>
<path d="M143.93 333.55C144.06 333.63 143.84 334.31 143.43 335.09C143.02 335.87 142.58 336.43 142.43 336.35C142.28 336.27 142.52 335.59 142.93 334.82C143.34 334.05 143.8 333.48 143.93 333.55Z" fill="#263238"/>
<path d="M151.77 337.68C151.9 337.75 151.68 338.44 151.27 339.21C150.86 339.98 150.42 340.55 150.27 340.48C150.12 340.41 150.36 339.72 150.77 338.94C151.18 338.16 151.63 337.61 151.77 337.68Z" fill="#263238"/>
<path d="M156.29 340C156.42 340.08 156.2 340.77 155.79 341.54C155.38 342.31 154.94 342.88 154.79 342.8C154.64 342.72 154.88 342.04 155.29 341.27C155.7 340.5 156.16 339.93 156.29 340Z" fill="#263238"/>
<path d="M225.6 240.84C225.6 240.84 225.6 240.78 225.6 240.67C225.6 240.56 225.6 240.38 225.6 240.17C225.6 239.73 225.6 239.09 225.6 238.26C225.6 236.58 225.6 234.14 225.6 231.04C225.6 224.84 225.55 216.04 225.52 205.4L225.67 205.54H190.23L190.39 205.37C190.39 218.37 190.39 230.51 190.39 240.81L190.25 240.66L215.89 240.74H223.11H223.17H215.99L190.25 240.81H190V240.66C190 230.36 190 218.2 190 205.22V205.05H190.17H225.61H225.75V205.2C225.75 215.84 225.7 224.71 225.68 230.94C225.68 234.02 225.68 236.45 225.68 238.12C225.68 238.94 225.68 239.56 225.68 240V240.64L225.6 240.84Z" fill="black"/>
<path d="M225.6 240.84C225.685 240.771 225.776 240.707 225.87 240.65L226.68 240.13L229.82 238.13L241.36 231L241.3 231.11C241.3 221.86 241.3 209.61 241.3 196.2L241.46 196.37H241.37H206.43H206.49L194.56 203L191.3 204.82L190.45 205.28L190.16 205.43C190.247 205.366 190.337 205.305 190.43 205.25L191.27 204.75L194.49 202.88L206.33 196.08H241.27H241.53V196.25C241.53 209.66 241.53 221.91 241.53 231.16V231.23H241.47L229.87 238.32L226.7 240.24L225.87 240.73L225.6 240.84Z" fill="black"/>
<path d="M241.42 196.16C241.47 196.24 237.97 198.37 233.6 200.92C229.23 203.47 225.6 205.48 225.6 205.4C225.6 205.32 229.05 203.19 233.43 200.63C237.81 198.07 241.38 196.08 241.42 196.16Z" fill="black"/>
<path d="M191.84 239.38C191.84 239.46 191.54 239.75 191.08 240.01C190.62 240.27 190.2 240.43 190.16 240.35C190.12 240.27 190.45 239.99 190.91 239.72C191.37 239.45 191.79 239.3 191.84 239.38Z" fill="#008EA3"/>
<path d="M195.2 237.45C195.25 237.53 194.91 237.82 194.44 238.08C193.97 238.34 193.56 238.5 193.52 238.42C193.48 238.34 193.81 238.06 194.28 237.79C194.75 237.52 195.15 237.37 195.2 237.45Z" fill="black"/>
<path d="M198.56 235.52C198.61 235.6 198.27 235.89 197.81 236.15C197.35 236.41 196.93 236.57 196.88 236.49C196.83 236.41 197.17 236.13 197.64 235.86C198.11 235.59 198.52 235.44 198.56 235.52Z" fill="black"/>
<path d="M201.93 233.59C201.93 233.67 201.63 233.95 201.17 234.22C200.71 234.49 200.29 234.64 200.24 234.56C200.19 234.48 200.54 234.2 201 233.93C201.46 233.66 201.88 233.51 201.93 233.59Z" fill="black"/>
<path d="M205.29 231.66C205.29 231.74 205 232.02 204.53 232.29C204.06 232.56 203.65 232.71 203.61 232.63C203.57 232.55 203.9 232.27 204.36 232C204.82 231.73 205.24 231.58 205.29 231.66Z" fill="black"/>
<path d="M206.14 228.27C206.23 228.27 206.3 228.7 206.3 229.27C206.3 229.84 206.22 230.27 206.12 230.27C206.02 230.27 205.96 229.84 205.96 229.27C205.96 228.7 206.05 228.26 206.14 228.27Z" fill="black"/>
<path d="M206.17 224.39C206.26 224.39 206.34 224.82 206.33 225.39C206.32 225.96 206.25 226.39 206.16 226.39C206.07 226.39 205.99 225.95 205.99 225.39C205.99 224.83 206.08 224.39 206.17 224.39Z" fill="black"/>
<path d="M206.2 220.51C206.29 220.51 206.37 220.95 206.36 221.51C206.35 222.07 206.28 222.51 206.19 222.51C206.1 222.51 206.02 222.07 206.02 221.51C206.02 220.95 206.11 220.51 206.2 220.51Z" fill="black"/>
<path d="M206.23 216.63C206.32 216.63 206.4 217.07 206.39 217.63C206.38 218.19 206.31 218.63 206.22 218.63C206.13 218.63 206.05 218.2 206.06 217.63C206.07 217.06 206.14 216.63 206.23 216.63Z" fill="black"/>
<path d="M206.26 212.76C206.35 212.76 206.43 213.19 206.42 213.76C206.41 214.33 206.34 214.76 206.25 214.76C206.16 214.76 206.08 214.33 206.09 213.76C206.1 213.19 206.17 212.76 206.26 212.76Z" fill="black"/>
<path d="M206.29 208.88C206.39 208.88 206.46 209.31 206.45 209.88C206.44 210.45 206.37 210.88 206.28 210.88C206.19 210.88 206.11 210.44 206.12 209.88C206.13 209.32 206.2 208.88 206.29 208.88Z" fill="black"/>
<path d="M206.32 205C206.42 205 206.49 205.44 206.48 206C206.47 206.56 206.4 207 206.31 207C206.22 207 206.14 206.56 206.15 206C206.16 205.44 206.23 205 206.32 205Z" fill="black"/>
<path d="M206.35 201.12C206.45 201.12 206.52 201.56 206.51 202.12C206.5 202.68 206.43 203.12 206.34 203.12C206.25 203.12 206.17 202.69 206.18 202.12C206.19 201.55 206.26 201.12 206.35 201.12Z" fill="black"/>
<path d="M206.38 197.25C206.48 197.25 206.55 197.68 206.54 198.25C206.53 198.82 206.46 199.25 206.37 199.25C206.28 199.25 206.2 198.82 206.21 198.25C206.22 197.68 206.29 197.25 206.38 197.25Z" fill="black"/>
<path d="M239.49 231.08C239.49 231 239.92 230.93 240.49 230.93C241.06 230.93 241.49 231 241.49 231.08C241.49 231.16 241.06 231.24 240.49 231.24C239.92 231.24 239.49 231.17 239.49 231.08Z" fill="black"/>
<path d="M235.61 231.08C235.61 231 236.04 230.93 236.61 230.93C237.18 230.93 237.61 231 237.61 231.08C237.61 231.16 237.17 231.24 236.61 231.24C236.05 231.24 235.61 231.17 235.61 231.08Z" fill="black"/>
<path d="M231.73 231.08C231.73 231 232.16 230.93 232.73 230.93C233.3 230.93 233.73 231 233.73 231.08C233.73 231.16 233.3 231.24 232.73 231.24C232.16 231.24 231.73 231.17 231.73 231.08Z" fill="black"/>
<path d="M227.85 231.08C227.85 231 228.29 230.93 228.85 230.93C229.41 230.93 229.85 231 229.85 231.08C229.85 231.16 229.42 231.24 228.85 231.24C228.28 231.24 227.85 231.17 227.85 231.08Z" fill="black"/>
<path d="M224 231.08C224 231 224.43 230.93 225 230.93C225.57 230.93 226 231 226 231.08C226 231.16 225.57 231.24 225 231.24C224.43 231.24 224 231.17 224 231.08Z" fill="black"/>
<path d="M220.1 231.08C220.1 231 220.53 230.93 221.1 230.93C221.67 230.93 222.1 231 222.1 231.08C222.1 231.16 221.66 231.24 221.1 231.24C220.54 231.24 220.1 231.17 220.1 231.08Z" fill="black"/>
<path d="M216.22 231.08C216.22 231 216.65 230.93 217.22 230.93C217.79 230.93 218.22 231 218.22 231.08C218.22 231.16 217.79 231.24 217.22 231.24C216.65 231.24 216.22 231.17 216.22 231.08Z" fill="black"/>
<path d="M212.34 231.08C212.34 231 212.78 230.93 213.34 230.93C213.9 230.93 214.34 231 214.34 231.08C214.34 231.16 213.91 231.24 213.34 231.24C212.77 231.24 212.34 231.17 212.34 231.08Z" fill="black"/>
<path d="M208.47 231.08C208.47 231 208.9 230.93 209.47 230.93C210.04 230.93 210.47 231 210.47 231.08C210.47 231.16 210.04 231.24 209.47 231.24C208.9 231.24 208.47 231.17 208.47 231.08Z" fill="black"/>
<path d="M206.12 231.08C206.12 231 206.21 230.93 206.32 230.93C206.43 230.93 206.53 231 206.53 231.08C206.53 231.16 206.44 231.24 206.32 231.24C206.296 231.243 206.272 231.241 206.249 231.234C206.226 231.228 206.205 231.217 206.186 231.202C206.168 231.187 206.152 231.169 206.141 231.148C206.13 231.127 206.122 231.104 206.12 231.08Z" fill="black"/>
<path d="M245.71 219.27C246.006 219.299 246.304 219.299 246.6 219.27C246.989 219.184 247.354 219.015 247.671 218.776C247.989 218.536 248.251 218.23 248.44 217.88C248.69 217.35 248.811 216.769 248.794 216.183C248.776 215.597 248.621 215.024 248.34 214.51C248.275 214.369 248.178 214.244 248.056 214.147C247.935 214.05 247.792 213.982 247.64 213.95C247.32 213.91 246.997 213.996 246.74 214.19C246.206 214.708 245.817 215.356 245.61 216.07C245.33 216.846 245.162 217.657 245.11 218.48H244.78C244.78 215.91 244.73 213.67 244.73 212.07C244.73 211.32 244.73 210.69 244.73 210.19C244.703 209.964 244.703 209.736 244.73 209.51C244.776 209.734 244.799 209.962 244.8 210.19C244.8 210.69 244.8 211.32 244.88 212.07C244.94 213.67 245 215.91 245.05 218.48H244.72C244.774 217.626 244.949 216.784 245.24 215.98C245.378 215.604 245.538 215.237 245.72 214.88C245.901 214.517 246.161 214.2 246.48 213.95C246.644 213.826 246.831 213.735 247.03 213.683C247.229 213.632 247.436 213.621 247.64 213.65C247.834 213.697 248.015 213.786 248.17 213.91C248.326 214.034 248.452 214.191 248.54 214.37C248.836 214.933 248.991 215.559 248.991 216.195C248.991 216.831 248.836 217.457 248.54 218.02C248.333 218.388 248.046 218.704 247.7 218.945C247.353 219.186 246.957 219.345 246.54 219.41C246.315 219.447 246.085 219.447 245.86 219.41C245.803 219.372 245.752 219.325 245.71 219.27Z" fill="black"/>
<path d="M147.42 385.23C147.42 385.23 147.56 385.23 147.83 385.35C148.1 385.47 148.5 385.56 149.01 385.77C150.504 386.359 151.931 387.103 153.27 387.99C155.403 389.393 157.294 391.132 158.87 393.14C160.985 395.794 162.42 398.925 163.05 402.26C163.764 406.325 163.224 410.51 161.5 414.26C160.551 416.348 159.229 418.246 157.6 419.86C156.747 420.704 155.812 421.461 154.81 422.12C154.28 422.42 153.81 422.74 153.21 423.02C152.61 423.3 152.11 423.57 151.52 423.78C146.86 425.63 141.52 425.71 136.16 425.2C133.48 424.94 130.78 424.55 128.03 424.12C125.237 423.72 122.483 423.081 119.8 422.21C117.086 421.348 114.578 419.939 112.43 418.07C111.4 417.127 110.493 416.059 109.73 414.89C109.006 413.72 108.425 412.468 108 411.16C107.194 408.613 106.925 405.926 107.21 403.27C107.491 400.735 108.23 398.272 109.39 396C111.674 391.849 115.122 388.456 119.31 386.24C122.918 384.292 126.86 383.037 130.93 382.54C134.277 382.143 137.658 382.12 141.01 382.47C143.535 382.738 146.042 383.149 148.52 383.7C150.52 384.16 152.12 384.58 153.18 384.87L154.38 385.22L154.79 385.36L154.37 385.26L153.16 384.95C152.1 384.68 150.53 384.28 148.49 383.85C146.01 383.325 143.503 382.941 140.98 382.7C137.653 382.365 134.298 382.405 130.98 382.82C126.953 383.335 123.057 384.593 119.49 386.53C115.372 388.727 111.983 392.077 109.74 396.17C108.607 398.409 107.892 400.835 107.63 403.33C107.356 405.933 107.622 408.564 108.41 411.06C108.819 412.337 109.383 413.56 110.09 414.7C110.829 415.84 111.709 416.882 112.71 417.8C114.821 419.628 117.281 421.009 119.94 421.86C122.608 422.722 125.344 423.355 128.12 423.75C130.85 424.18 133.56 424.57 136.22 424.83C141.52 425.34 146.83 425.27 151.41 423.45C155.777 421.763 159.303 418.421 161.22 414.15C162.928 410.46 163.479 406.339 162.8 402.33C162.182 399.044 160.778 395.957 158.71 393.33C157.161 391.333 155.305 389.594 153.21 388.18C151.883 387.287 150.473 386.524 149 385.9C148.49 385.69 148.1 385.56 147.83 385.45L147.42 385.23Z" fill="#263238"/>
<path d="M120.72 411.07C120.455 411.138 120.183 411.171 119.91 411.17L117.68 411.28H116.94C116.658 411.319 116.372 411.319 116.09 411.28C115.912 411.225 115.761 411.103 115.67 410.94C115.594 410.791 115.55 410.627 115.54 410.46L115.48 409.55C115.41 408.29 115.33 406.93 115.25 405.55C115.17 404.17 115.08 402.76 115.07 401.49C115.053 400.867 115.198 400.25 115.49 399.7C115.779 399.245 116.207 398.894 116.71 398.7C117.432 398.449 118.201 398.363 118.96 398.45C119.236 398.457 119.51 398.508 119.77 398.6C119.497 398.624 119.223 398.624 118.95 398.6C118.223 398.569 117.498 398.688 116.82 398.95C116.392 399.149 116.04 399.483 115.82 399.9C115.57 400.402 115.449 400.959 115.47 401.52C115.47 402.74 115.62 404.13 115.68 405.52C115.74 406.91 115.82 408.31 115.89 409.52C115.95 410.11 115.82 410.85 116.23 410.95C116.479 410.986 116.731 410.986 116.98 410.95H119.98C120.231 410.958 120.479 410.999 120.72 411.07Z" fill="#263238"/>
<path d="M119.6 404.52C118.927 404.725 118.222 404.806 117.52 404.76C116.819 404.836 116.111 404.782 115.43 404.6C116.102 404.389 116.808 404.308 117.51 404.36C118.21 404.283 118.919 404.337 119.6 404.52Z" fill="#263238"/>
<path d="M130 402.66C128.95 402.808 127.889 402.861 126.83 402.82C125.778 402.903 124.722 402.903 123.67 402.82C124.688 402.499 125.753 402.353 126.82 402.39C127.888 402.306 128.962 402.397 130 402.66Z" fill="#263238"/>
<path d="M130.62 407.44C129.591 407.676 128.532 407.75 127.48 407.66C126.43 407.702 125.381 407.577 124.37 407.29C125.408 407.19 126.452 407.19 127.49 407.29C128.536 407.245 129.583 407.296 130.62 407.44Z" fill="#263238"/>
<path d="M147.43 410.31C147.43 410.31 147.43 409.88 147.43 409.09C147.382 407.974 147.18 406.871 146.83 405.81C146.67 405.066 146.261 404.4 145.67 403.92C145.501 403.825 145.308 403.781 145.115 403.793C144.921 403.805 144.735 403.874 144.58 403.99C144.227 404.252 143.942 404.595 143.75 404.99C142.95 406.957 142.608 409.081 142.75 411.2H142.36C142.474 409.668 142.454 408.129 142.3 406.6C142.245 405.979 142.158 405.362 142.04 404.75C141.941 404.185 141.643 403.674 141.2 403.31C140.987 403.157 140.732 403.075 140.47 403.075C140.208 403.075 139.953 403.157 139.74 403.31C139.291 403.605 138.964 404.053 138.82 404.57C138.677 405.09 138.583 405.622 138.54 406.16C138.48 406.69 138.43 407.21 138.41 407.72C138.355 408.669 138.355 409.621 138.41 410.57H138.1C138.02 408.32 137.95 406.48 137.9 405.13C137.9 404.53 137.9 404.04 137.9 403.65C137.878 403.477 137.878 403.303 137.9 403.13C137.94 403.301 137.963 403.475 137.97 403.65L138.09 405.13C138.17 406.47 138.29 408.31 138.43 410.55H138.12C138.069 409.591 138.069 408.629 138.12 407.67C138.12 407.16 138.18 406.67 138.24 406.09C138.281 405.528 138.378 404.972 138.53 404.43C138.694 403.825 139.071 403.3 139.59 402.95C139.889 402.762 140.237 402.664 140.59 402.67C140.95 402.671 141.3 402.787 141.59 403C142.113 403.419 142.468 404.011 142.59 404.67C142.718 405.298 142.811 405.932 142.87 406.57C143.004 408.124 143.004 409.686 142.87 411.24H142.48C142.348 409.067 142.725 406.892 143.58 404.89C143.808 404.429 144.152 404.036 144.58 403.75C144.785 403.603 145.028 403.518 145.28 403.506C145.532 403.493 145.782 403.554 146 403.68C146.646 404.202 147.088 404.935 147.25 405.75C147.58 406.839 147.749 407.972 147.75 409.11C147.75 409.51 147.75 409.82 147.7 410.02C147.626 410.131 147.535 410.228 147.43 410.31Z" fill="#263238"/>
<path d="M156.19 409.68C156.19 409.68 156.05 409.85 155.71 410.02C155.226 410.255 154.698 410.385 154.16 410.4C153.348 410.425 152.546 410.206 151.86 409.77C151.018 409.212 150.419 408.357 150.182 407.376C149.944 406.395 150.086 405.361 150.58 404.48C150.994 403.781 151.607 403.22 152.34 402.87C152.824 402.637 153.353 402.511 153.89 402.5C154.087 402.485 154.284 402.512 154.47 402.58C153.776 402.638 153.099 402.821 152.47 403.12C151.817 403.478 151.276 404.011 150.91 404.66C150.491 405.467 150.377 406.398 150.59 407.282C150.804 408.166 151.329 408.943 152.07 409.47C152.694 409.882 153.422 410.107 154.17 410.12C154.865 410.103 155.551 409.953 156.19 409.68Z" fill="#263238"/>
<path d="M158.55 398.35C157.043 398.442 155.55 398.7 154.1 399.12L153.43 399.34L153.93 398.83C154.893 397.951 155.728 396.941 156.41 395.83C156.943 394.901 157.128 393.813 156.93 392.76C156.82 392.29 156.54 391.92 156.16 391.91C155.765 391.917 155.377 392.02 155.03 392.21C154.5 392.483 154.03 392.861 153.65 393.32C153.38 393.65 153.27 393.87 153.24 393.85C153.281 393.622 153.381 393.408 153.53 393.23C153.875 392.703 154.346 392.27 154.9 391.97C155.285 391.73 155.726 391.595 156.18 391.58C156.319 391.584 156.456 391.618 156.582 391.678C156.708 391.738 156.819 391.824 156.91 391.93C157.089 392.141 157.216 392.391 157.28 392.66C157.527 393.806 157.342 395.003 156.76 396.02C156.064 397.179 155.19 398.222 154.17 399.11L154 398.81C155.065 398.49 156.168 398.315 157.28 398.29C157.704 398.235 158.134 398.255 158.55 398.35Z" fill="#263238"/>
<path d="M225.52 386.52L246.83 382.41L287.71 391.79L308.43 396.11L308.73 424.42L262.51 432.93L231.32 423.69L219.53 406.34L225.52 386.52Z" fill="#FFBE9D"/>
<path d="M210.38 389.34L230.49 384.6C230.49 384.6 244.71 428.6 279.8 426.67C308.4 425.12 308.43 396.11 308.43 396.11L329.34 399.8C329.34 399.8 338.11 452.89 328.5 490.13C320.5 521.13 313.4 563.61 313.4 563.61H174.49L210.38 389.34Z" fill="#E28686"/>
<path d="M414.15 525.37C414.15 525.37 356.86 425 346.55 412.12C335.26 398.02 326.25 399.65 326.25 399.65L320.19 467.26L368.9 536.37L380.51 540.56L414.15 525.37Z" fill="#E28686"/>
<path d="M212.78 388.78C212.78 388.78 180.22 391.38 168.54 444.78C163.26 468.91 156.54 497.19 154.66 516.19C153.26 529.98 161.77 544.32 175.52 546.08L192.78 549.28C197.34 550.126 202.051 549.192 205.943 546.67C209.834 544.147 212.611 540.228 213.7 535.72L219.53 511.58L204 506.36L207.59 434.45L212.78 388.78Z" fill="#E28686"/>
<path d="M332 437.12C332.076 437.361 332.127 437.609 332.15 437.86C332.24 438.4 332.34 439.12 332.48 440.01C332.55 440.48 332.62 441.01 332.71 441.57C332.8 442.13 332.83 442.76 332.89 443.43C333.03 444.76 333.19 446.28 333.26 447.97C333.501 451.922 333.528 455.885 333.34 459.84C333.106 464.681 332.626 469.508 331.9 474.3C331.15 479.4 330.21 484.22 329.26 488.58C328.31 492.94 327.36 496.85 326.55 500.13C325.74 503.41 325.03 506.04 324.55 507.86C324.31 508.73 324.12 509.43 323.97 509.95C323.91 510.195 323.833 510.435 323.74 510.67C323.76 510.42 323.804 510.172 323.87 509.93C323.99 509.39 324.16 508.69 324.36 507.81L326.2 500C326.97 496.71 327.89 492.8 328.8 488.44C329.71 484.08 330.65 479.27 331.4 474.18C332.15 469.09 332.66 464.18 332.87 459.77C333.08 455.36 333.1 451.31 332.87 447.95C332.87 446.27 332.69 444.75 332.58 443.41C332.53 442.75 332.48 442.13 332.44 441.55C332.4 440.97 332.31 440.47 332.26 439.99C332.16 439.1 332.09 438.38 332.03 437.84C332.004 437.601 331.994 437.36 332 437.12Z" fill="#263238"/>
<path d="M221.05 514.16C220.981 514.018 220.924 513.871 220.88 513.72C220.78 513.39 220.64 512.97 220.47 512.43L219.83 510.36C219.65 509.418 219.253 508.531 218.67 507.77C217.814 506.948 216.791 506.321 215.67 505.93C214.353 505.432 212.994 505.05 211.61 504.79C208.31 504.178 204.965 503.844 201.61 503.79H201.34V503.53L204.28 484.36C206.17 472.29 207.89 461.36 209.14 453.36C209.79 449.44 210.31 446.25 210.68 443.99C210.86 442.92 211.01 442.07 211.12 441.44C211.12 441.18 211.21 440.96 211.25 440.78C211.257 440.704 211.277 440.629 211.31 440.56C211.325 440.636 211.325 440.714 211.31 440.79C211.31 440.97 211.31 441.19 211.23 441.46C211.15 442.09 211.03 442.94 210.89 444.02C210.56 446.29 210.09 449.49 209.52 453.42C208.3 461.42 206.64 472.33 204.8 484.42C203.72 491.32 202.71 497.85 201.8 503.58L201.57 503.31C204.966 503.397 208.349 503.775 211.68 504.44C213.083 504.72 214.459 505.125 215.79 505.65C216.956 506.078 218.012 506.761 218.88 507.65C219.237 508.051 219.504 508.526 219.66 509.04L220.03 510.37C220.26 511.18 220.45 511.88 220.61 512.46C220.77 513.04 220.87 513.46 220.95 513.77C220.995 513.897 221.029 514.027 221.05 514.16Z" fill="#263238"/>
<path d="M176.2 522.32C176.232 521.864 176.319 521.414 176.46 520.98C176.775 519.775 177.196 518.6 177.72 517.47C179.425 513.693 182.084 510.425 185.434 507.986C188.785 505.547 192.712 504.022 196.83 503.56C198.064 503.409 199.309 503.369 200.55 503.44C201.008 503.445 201.465 503.502 201.91 503.61C200.239 503.619 198.57 503.723 196.91 503.92C192.886 504.475 189.061 506.016 185.775 508.406C182.49 510.796 179.847 513.962 178.08 517.62C177.37 519.152 176.742 520.721 176.2 522.32Z" fill="#263238"/>
<path d="M183.73 495.74C183.985 495.675 184.248 495.652 184.51 495.67C185.228 495.657 185.946 495.69 186.66 495.77C189.021 496.008 191.335 496.587 193.53 497.49C195.724 498.398 197.778 499.614 199.63 501.1C200.191 501.544 200.723 502.025 201.22 502.54C201.57 502.91 201.76 503.12 201.73 503.15C201.7 503.18 200.85 502.45 199.41 501.39C195.634 498.623 191.241 496.818 186.61 496.13C184.84 495.87 183.73 495.83 183.73 495.74Z" fill="#263238"/>
<path d="M217.43 426.67C217.365 426.196 217.341 425.718 217.36 425.24C217.36 424.32 217.3 423 217.18 421.37C216.88 417.117 216.149 412.906 215 408.8C213.834 404.701 212.263 400.728 210.31 396.94C209.55 395.49 208.91 394.33 208.44 393.55C208.177 393.151 207.949 392.729 207.76 392.29C208.079 392.646 208.364 393.031 208.61 393.44C209.14 394.2 209.83 395.33 210.61 396.77C214.772 404.323 217.133 412.735 217.51 421.35C217.58 422.99 217.57 424.35 217.51 425.24C217.531 425.718 217.504 426.197 217.43 426.67Z" fill="#263238"/>
<g opacity="0.3">
<path opacity="0.3" d="M330.52 481.91C338.82 467.84 339 449.56 331.75 434.91C334.082 450.518 333.58 466.419 330.27 481.85" fill="black"/>
</g>
<g opacity="0.3">
<path opacity="0.3" d="M256.62 497.82C250.32 499.67 241.62 500.12 235.45 497.82C240.26 504.65 249.53 507.12 257.57 504.9C265.61 502.68 273.03 494.63 273.65 486.3C269.76 491.56 262.93 496 256.62 497.82Z" fill="black"/>
</g>
<path d="M279.8 475.1C279.771 475.292 279.721 475.479 279.65 475.66C279.53 476.02 279.39 476.57 279.11 477.23C278.381 479.141 277.474 480.979 276.4 482.72C274.817 485.316 272.904 487.696 270.71 489.8C265.326 495.041 258.376 498.377 250.92 499.3C247.906 499.691 244.854 499.691 241.84 499.3C239.804 499.047 237.796 498.608 235.84 497.99C235.14 497.78 234.63 497.55 234.27 497.42C234.087 497.358 233.91 497.281 233.74 497.19C234.466 497.353 235.184 497.554 235.89 497.79C244.357 500.144 253.386 499.396 261.35 495.68C269.234 491.804 275.462 485.225 278.9 477.14C279.48 475.84 279.75 475.08 279.8 475.1Z" fill="#263238"/>
<path d="M209.56 545.11C209.56 545.11 209.49 545.22 209.31 545.38C209.058 545.631 208.787 545.861 208.5 546.07C207.454 546.85 206.294 547.464 205.06 547.89C203.226 548.5 201.312 548.837 199.38 548.89C197.044 548.964 194.705 548.881 192.38 548.64C187.38 548.21 182.94 547.48 179.73 546.91C178.12 546.62 176.82 546.37 175.93 546.18C175.456 546.116 174.99 546.002 174.54 545.84C175.016 545.847 175.491 545.894 175.96 545.98L179.79 546.54C183.01 547.03 187.47 547.69 192.43 548.12C194.755 548.36 197.093 548.457 199.43 548.41C201.323 548.37 203.201 548.067 205.01 547.51C206.638 546.943 208.172 546.134 209.56 545.11Z" fill="#263238"/>
<path d="M322.5 282L326.61 278C332.08 280.38 334.61 286.73 335.54 292.63C336.47 298.53 336.33 304.73 338.84 310.15C340.76 314.32 344.25 318.15 343.84 322.76C343.45 327.11 339.51 330.63 339.49 335C339.49 339.21 342.99 342.44 345.03 346.12C349.16 353.57 351.84 384.05 349.68 392.3C331.51 390.73 299.33 388.79 281.15 384.61C285.94 353.29 306.11 309.09 322.5 282Z" fill="#263238"/>
<path d="M330.63 309.92C331.89 288.63 316.43 269.15 294.88 266.58C272.01 263.86 251.78 280.24 249.88 302.52L244.52 392.46C244.422 394.198 244.908 395.919 245.9 397.35C251.18 405.07 260.74 411.11 269.29 412.3C277.56 413.45 285.95 411.3 292.99 407.38C294.158 406.72 295.132 405.765 295.814 404.61C296.497 403.455 296.864 402.141 296.88 400.8L297.25 380.67C297.248 380.653 297.251 380.635 297.257 380.619C297.263 380.602 297.272 380.587 297.285 380.575C297.297 380.562 297.312 380.553 297.328 380.547C297.345 380.541 297.362 380.538 297.38 380.54C299.264 380.682 301.157 380.628 303.03 380.38C308.35 379.08 321.92 373.86 326.48 353.94C328 347.34 329.52 328.59 330.63 309.92Z" fill="#FFBE9D"/>
<path d="M301.05 339.33C301.05 339.13 303.28 338.91 306.89 338.71C307.8 338.71 308.67 338.56 308.89 337.96C309.024 337.043 308.871 336.106 308.45 335.28L306.21 328.28C303.11 318.36 300.93 310.23 301.33 310.12C301.73 310.01 304.58 317.94 307.68 327.86C308.42 330.31 309.13 332.64 309.81 334.86C310.09 335.86 310.6 337.08 310.05 338.39C309.897 338.695 309.676 338.961 309.404 339.168C309.131 339.374 308.815 339.515 308.48 339.58C307.97 339.681 307.449 339.718 306.93 339.69C303.29 339.67 301.06 339.53 301.05 339.33Z" fill="#263238"/>
<path d="M324.75 317.45C324.36 317.88 322 315.9 318.62 315.8C315.24 315.7 312.72 317.47 312.36 317.01C312.18 316.8 312.59 316.01 313.69 315.19C315.143 314.146 316.901 313.611 318.69 313.67C320.477 313.732 322.191 314.39 323.56 315.54C324.61 316.44 325 317.26 324.75 317.45Z" fill="#263238"/>
<path d="M290.41 318.31C289.95 318.74 287.49 316.51 283.8 316.19C280.11 315.87 277.24 317.56 276.87 317.06C276.69 316.83 277.19 316.06 278.44 315.24C280.115 314.248 282.062 313.813 284 314C285.94 314.172 287.771 314.968 289.22 316.27C290.31 317.24 290.63 318.12 290.41 318.31Z" fill="#263238"/>
<path d="M297.25 380.53C297.25 380.53 283.47 380.68 266.99 369.36C266.99 369.36 271.25 387.54 297.14 386.97L297.25 380.53Z" fill="#EB996E"/>
<path d="M299 347.63C298.372 346.745 297.533 346.031 296.558 345.554C295.583 345.077 294.504 344.852 293.42 344.9C292.637 344.911 291.864 345.08 291.148 345.396C290.432 345.712 289.786 346.169 289.25 346.74C288.738 347.286 288.41 347.979 288.311 348.722C288.212 349.464 288.348 350.219 288.7 350.88C289.57 352.27 291.55 352.72 293.28 352.36C294.993 351.891 296.597 351.089 298 350C298.417 349.733 298.782 349.395 299.08 349C299.221 348.816 299.303 348.594 299.318 348.362C299.332 348.131 299.277 347.9 299.16 347.7" fill="#EB996E"/>
<path d="M290.45 341C291.03 341 290.8 344.8 293.92 347.72C297.04 350.64 301.17 350.5 301.17 351.03C301.17 351.28 300.17 351.71 298.47 351.63C296.216 351.505 294.075 350.604 292.41 349.08C290.824 347.63 289.869 345.616 289.75 343.47C289.7 341.88 290.19 341 290.45 341Z" fill="#263238"/>
<path d="M291 304.37C290.58 305.29 287.07 304.58 282.88 304.75C278.69 304.92 275.24 305.75 274.74 304.9C274.53 304.47 275.17 303.63 276.6 302.81C278.502 301.819 280.601 301.269 282.744 301.2C284.887 301.131 287.018 301.544 288.98 302.41C290.43 303.13 291.14 303.93 291 304.37Z" fill="#263238"/>
<path d="M325.48 305.12C324.76 305.92 321.91 305.12 318.48 305.12C315.05 305.12 312.17 305.69 311.48 304.86C311.18 304.46 311.63 303.66 312.89 302.86C314.635 301.946 316.582 301.488 318.551 301.53C320.52 301.572 322.446 302.112 324.15 303.1C325.39 303.91 325.8 304.73 325.48 305.12Z" fill="#263238"/>
<path d="M298 262.08C296.14 258.92 292.69 257.48 288.83 256.9C273.07 254.51 255.49 264 246.66 277.26C237.83 290.52 237.36 310.31 243.82 324.87L253.65 318.73C273.38 310.59 287.31 291.58 300 271.94C301.77 269.27 299.65 264.83 298 262.08Z" fill="#263238"/>
<path d="M322.28 270.75C315.69 263.25 310.9 255.75 297.22 260.99C295.22 264.82 299.22 269.79 302.66 272.69C307.66 276.95 311.95 279.82 315.21 282.87C321.79 289.02 329.27 309.71 329.92 321C329.92 321.71 331.17 311.31 331.92 311.2C332.84 311.06 336.55 306.52 336.04 300.32C334.28 279.13 328.87 278.24 322.28 270.75Z" fill="#263238"/>
<path d="M288.87 256.9C289.898 256.699 290.961 256.79 291.94 257.16C294.361 257.902 296.519 259.322 298.16 261.25C298.629 261.792 299.044 262.378 299.4 263C299.711 263.601 299.952 264.235 300.12 264.89C300.477 265.946 300.748 267.03 300.93 268.13C301.2 270.06 300.74 271.23 300.64 271.2C300.54 271.17 300.69 270.02 300.27 268.25C299.993 267.203 299.659 266.171 299.27 265.16C299.092 264.569 298.858 263.996 298.57 263.45C298.232 262.877 297.844 262.335 297.41 261.83C295.862 260.036 293.903 258.643 291.7 257.77C290 257.16 288.85 257.06 288.87 256.9Z" fill="#455A64"/>
<path d="M321.63 324C321.631 324.767 321.339 325.505 320.812 326.063C320.286 326.621 319.566 326.956 318.8 327C318.42 327.036 318.036 326.995 317.672 326.88C317.307 326.766 316.97 326.58 316.678 326.333C316.387 326.086 316.147 325.784 315.974 325.443C315.801 325.103 315.698 324.731 315.67 324.35C315.651 323.571 315.935 322.815 316.463 322.242C316.992 321.669 317.722 321.324 318.5 321.28C318.886 321.243 319.276 321.285 319.645 321.403C320.015 321.521 320.356 321.714 320.649 321.968C320.942 322.223 321.18 322.534 321.348 322.883C321.517 323.232 321.613 323.612 321.63 324Z" fill="#263238"/>
<path d="M288.69 324.16C288.709 324.939 288.425 325.695 287.897 326.268C287.368 326.841 286.638 327.186 285.86 327.23C285.48 327.267 285.097 327.228 284.733 327.114C284.368 327.001 284.03 326.816 283.739 326.57C283.447 326.324 283.207 326.022 283.034 325.682C282.861 325.342 282.758 324.971 282.73 324.59C282.708 323.809 282.991 323.051 283.52 322.475C284.048 321.9 284.78 321.554 285.56 321.51C285.941 321.473 286.325 321.513 286.69 321.627C287.055 321.741 287.393 321.927 287.685 322.174C287.977 322.421 288.216 322.724 288.389 323.065C288.561 323.406 288.664 323.779 288.69 324.16Z" fill="#263238"/>
<path d="M198.05 349.19C199.91 346.13 202.05 343.25 205.45 341.98C208.85 340.71 212.71 339.98 215.38 337.5C219.57 333.65 219.38 327.25 219 321.67C218.62 316.09 218.52 309.67 222.8 305.92C226.38 302.79 232.07 302.51 235.17 298.92C237.24 296.53 237.65 293.23 238.37 290.18C240.37 282.01 244.84 267.74 268.92 259.53L247.62 340.47C249.21 340.92 253.01 344.54 253.22 346.99C253.41 349.28 252.42 351.6 252.4 353.9C252.4 356.71 255.46 358.39 257.4 360.47C259.86 363.12 260.62 366.94 260.24 370.47C259.451 375.294 258.161 380.023 256.39 384.58C236.63 382.58 207.79 381.94 192.73 369.34C190 367.06 193.91 356 198.05 349.19Z" fill="#263238"/>
<path d="M253.69 318.73C253.32 318.53 238.77 312.73 237.84 328.08C236.91 343.43 252.48 341.15 252.53 340.72C252.58 340.29 253.69 318.73 253.69 318.73Z" fill="#FFBE9D"/>
<path d="M248.21 334.64C248.14 334.58 247.93 334.81 247.46 334.98C246.81 335.218 246.092 335.193 245.46 334.91C243.88 334.21 242.67 331.56 242.76 328.8C242.811 327.485 243.152 326.197 243.76 325.03C243.934 324.561 244.219 324.141 244.589 323.805C244.96 323.469 245.406 323.227 245.89 323.1C246.202 323.038 246.526 323.087 246.805 323.238C247.085 323.39 247.302 323.635 247.42 323.93C247.6 324.37 247.48 324.67 247.56 324.7C247.64 324.73 247.91 324.46 247.82 323.82C247.762 323.434 247.571 323.08 247.28 322.82C246.879 322.474 246.358 322.302 245.83 322.34C245.194 322.425 244.59 322.671 244.077 323.057C243.564 323.442 243.159 323.953 242.9 324.54C242.169 325.83 241.764 327.278 241.72 328.76C241.63 331.85 243.03 334.83 245.21 335.6C245.613 335.746 246.044 335.799 246.47 335.754C246.896 335.709 247.307 335.567 247.67 335.34C248.16 335 248.26 334.67 248.21 334.64Z" fill="#EB996E"/>
<path d="M308.14 322.74C308.221 321.586 308.385 320.44 308.63 319.31C309.093 317.419 309.945 315.645 311.131 314.102C312.318 312.558 313.814 311.28 315.523 310.347C317.232 309.414 319.117 308.848 321.057 308.685C322.997 308.522 324.949 308.766 326.79 309.4C328.058 309.828 329.252 310.448 330.33 311.24C331.482 312.036 332.495 313.016 333.33 314.14C335.122 316.486 336.114 319.345 336.161 322.297C336.208 325.249 335.307 328.138 333.59 330.54C332.797 331.688 331.825 332.701 330.71 333.54C329.659 334.368 328.485 335.026 327.23 335.49C324.91 336.384 322.393 336.639 319.94 336.23C317.802 335.877 315.777 335.024 314.03 333.74C311.473 331.88 309.617 329.213 308.76 326.17C308.484 325.045 308.284 323.902 308.16 322.75C308.156 322.827 308.156 322.903 308.16 322.98C308.16 323.17 308.16 323.39 308.16 323.66C308.169 324.026 308.206 324.39 308.27 324.75C308.325 325.247 308.419 325.738 308.55 326.22C309.353 329.351 311.206 332.112 313.8 334.04C315.721 335.477 317.975 336.405 320.351 336.738C322.727 337.07 325.149 336.795 327.39 335.94C330.051 334.934 332.352 333.159 334 330.84C335.783 328.352 336.719 325.356 336.671 322.295C336.622 319.235 335.591 316.27 333.73 313.84C332.864 312.681 331.817 311.668 330.63 310.84C329.522 310.044 328.297 309.423 327 309C324.733 308.217 322.304 308.019 319.941 308.427C317.577 308.834 315.354 309.833 313.48 311.33C310.943 313.342 309.177 316.168 308.48 319.33C308.366 319.817 308.286 320.312 308.24 320.81C308.191 321.175 308.168 321.542 308.17 321.91C308.17 322.18 308.17 322.4 308.17 322.58C308.158 322.633 308.148 322.686 308.14 322.74Z" fill="#455A64"/>
<path d="M269.5 323.36C269.58 322.207 269.741 321.061 269.98 319.93C270.732 316.863 272.493 314.137 274.98 312.19C276.686 310.852 278.684 309.934 280.81 309.51C283.249 309.028 285.772 309.204 288.12 310.02C289.386 310.452 290.579 311.072 291.66 311.86C292.81 312.659 293.823 313.638 294.66 314.76C296.45 317.105 297.441 319.961 297.49 322.911C297.538 325.86 296.641 328.747 294.93 331.15C294.133 332.298 293.157 333.311 292.04 334.15C290.99 334.979 289.815 335.637 288.56 336.1C286.24 336.994 283.723 337.249 281.27 336.84C279.134 336.487 277.113 335.634 275.37 334.35C272.811 332.49 270.952 329.824 270.09 326.78C269.814 325.655 269.617 324.512 269.5 323.36C269.489 323.436 269.489 323.514 269.5 323.59C269.5 323.77 269.5 324 269.5 324.27C269.5 324.636 269.533 325.001 269.6 325.36C269.654 325.857 269.751 326.349 269.89 326.83C270.684 329.965 272.539 332.728 275.14 334.65C276.909 335.978 278.963 336.876 281.14 337.27C283.669 337.706 286.269 337.457 288.67 336.55C291.335 335.552 293.638 333.775 295.28 331.45C297.063 328.962 297.999 325.966 297.951 322.905C297.902 319.845 296.871 316.88 295.01 314.45C293.29 312.183 290.933 310.481 288.24 309.56C285.811 308.73 283.203 308.568 280.69 309.09C278.013 309.64 275.552 310.951 273.601 312.865C271.65 314.778 270.292 317.214 269.69 319.88C269.566 320.365 269.486 320.86 269.45 321.36C269.391 321.723 269.367 322.092 269.38 322.46V323.13C269.403 323.214 269.444 323.293 269.5 323.36Z" fill="#455A64"/>
<path d="M297.1 322.31C297.18 322.36 297.58 321.71 298.51 320.96C299.702 319.971 301.195 319.418 302.744 319.391C304.292 319.363 305.804 319.864 307.03 320.81C308.03 321.52 308.41 322.16 308.48 322.1C308.231 321.468 307.808 320.92 307.26 320.52C306.008 319.424 304.391 318.833 302.727 318.865C301.063 318.896 299.47 319.547 298.26 320.69C297.729 321.11 297.327 321.672 297.1 322.31Z" fill="#455A64"/>
<path d="M250.17 317.75C251.09 318.042 252.039 318.236 253 318.33C254.77 318.61 257.22 318.87 259.92 319.11L266.85 319.73C267.8 319.876 268.759 319.95 269.72 319.95C268.8 319.656 267.851 319.458 266.89 319.36C265.13 319.09 262.68 318.83 259.97 318.59L253.05 317.97C252.098 317.818 251.134 317.744 250.17 317.75Z" fill="#455A64"/>
<path d="M330.46 331.39C331.708 329.948 332.72 328.318 333.46 326.56C334.041 324.74 334.334 322.84 334.33 320.93C334.552 321.468 334.655 322.048 334.63 322.63C334.666 324.031 334.435 325.425 333.95 326.74C333.466 328.055 332.733 329.264 331.79 330.3C331.06 331.08 330.5 331.44 330.46 331.39Z" fill="white"/>
<path d="M332.88 315.59C332.96 315.47 333.53 315.76 333.88 316.44C334.23 317.12 334.08 317.74 333.94 317.73C333.8 317.72 333.68 317.21 333.41 316.66C333.14 316.11 332.79 315.7 332.88 315.59Z" fill="white"/>
<path d="M295.16 328.36C295.08 328.36 295.36 327.56 295.59 326.27C296.18 322.886 295.53 319.403 293.76 316.46C293.09 315.34 292.55 314.72 292.61 314.66C293.199 315.09 293.696 315.634 294.07 316.26C295.074 317.714 295.764 319.361 296.097 321.097C296.429 322.832 296.396 324.618 296 326.34C295.859 327.063 295.573 327.75 295.16 328.36Z" fill="white"/>
<path d="M242 340.51C242 340.51 241.79 340.81 241.49 341.36C241.06 342.141 240.833 343.018 240.83 343.91C240.814 344.557 240.932 345.2 241.176 345.798C241.42 346.397 241.786 346.939 242.25 347.39C242.809 347.946 243.492 348.362 244.243 348.603C244.994 348.845 245.791 348.905 246.57 348.78C247.344 348.621 248.07 348.284 248.691 347.796C249.312 347.309 249.812 346.684 250.15 345.97C250.423 345.384 250.574 344.748 250.593 344.101C250.612 343.455 250.499 342.811 250.26 342.21C249.944 341.378 249.429 340.636 248.76 340.05C248.28 339.64 247.96 339.47 247.98 339.43C248.31 339.515 248.618 339.672 248.88 339.89C249.643 340.445 250.238 341.199 250.6 342.07C250.89 342.715 251.04 343.413 251.04 344.12C251.04 344.827 250.89 345.525 250.6 346.17C250.256 346.974 249.718 347.679 249.033 348.223C248.349 348.768 247.541 349.134 246.68 349.288C245.82 349.443 244.934 349.381 244.104 349.109C243.273 348.838 242.522 348.363 241.92 347.73C241.422 347.23 241.035 346.63 240.785 345.97C240.535 345.31 240.428 344.605 240.47 343.9C240.504 342.958 240.799 342.045 241.32 341.26C241.67 340.71 242 340.49 242 340.51Z" fill="#E0E0E0"/>
<path d="M326.47 352.31C327.316 352.649 328.249 352.705 329.13 352.47C330.072 352.206 330.921 351.683 331.58 350.96C332.392 350.083 332.94 348.995 333.16 347.82C333.389 346.645 333.242 345.427 332.74 344.34C332.328 343.449 331.716 342.665 330.95 342.05C330.211 341.51 329.404 341.069 328.55 340.74C328.804 340.717 329.061 340.751 329.3 340.84C329.976 341.028 330.613 341.336 331.18 341.75C332.029 342.374 332.715 343.194 333.18 344.14C333.751 345.309 333.927 346.632 333.68 347.91C333.435 349.187 332.824 350.365 331.92 351.3C331.187 352.065 330.244 352.597 329.21 352.83C328.517 352.994 327.792 352.955 327.12 352.72C326.65 352.53 326.45 352.33 326.47 352.31Z" fill="#E0E0E0"/>
<path d="M271 550.87L285.83 555.26C285.83 555.26 294.01 558.77 297.99 559.68C302.93 560.81 306.3 559.28 306.48 556.53C306.66 553.78 302.82 553.43 302.82 553.43C299.556 552.187 296.382 550.72 293.32 549.04C291.096 547.495 289.278 545.437 288.02 543.04L293.32 543.77C293.32 543.77 304.47 551.77 308.67 554.19C312.87 556.61 313.79 552.36 314.15 551.08C314.51 549.8 301.73 536.83 301.73 536.83C301.73 536.83 313.97 544.69 316.16 546.65C318.35 548.61 321.65 549.25 322.38 547.98C323.11 546.71 325.12 546.7 322.38 541.28C319.64 535.86 297.71 521.28 297.71 521.28L303.71 520L310.29 522.93C310.748 525.188 311.682 527.322 313.03 529.19C315.4 532.71 319.61 529.19 319.61 529.19L317 515.69L304 507.55C304 507.55 290.48 509.2 288.47 510.11C286.46 511.02 284.26 514.85 284.26 514.85L280.61 516.33C274.94 517.97 275.13 523.64 273.3 523.82C271.47 524 218.13 513.6 218.13 513.6L213.3 512.34C205.3 518.41 202.11 528.44 200.7 537.34C200.7 537.34 199.23 541.7 200.7 544.1L271 550.87Z" fill="#FFBE9D"/>
<path d="M261.21 541.38C261.147 541.095 261.13 540.801 261.16 540.51C261.156 540.174 261.186 539.839 261.25 539.51C261.297 539.056 261.384 538.608 261.51 538.17C262.261 535.645 263.531 533.305 265.24 531.3C266.899 529.285 268.748 527.433 270.76 525.77C271.557 525.043 272.425 524.396 273.35 523.84C272.61 524.606 271.825 525.327 271 526C269.077 527.724 267.285 529.589 265.64 531.58C263.979 533.542 262.701 535.798 261.87 538.23C261.28 540.14 261.32 541.39 261.21 541.38Z" fill="#EB996E"/>
<path d="M284.31 514.85C284.31 514.85 283.87 515.08 283.19 515.63C282.242 516.43 281.423 517.371 280.76 518.42C280.282 519.129 279.873 519.882 279.54 520.67C279.232 521.597 279.038 522.557 278.96 523.53C278.822 524.662 278.418 525.745 277.78 526.69C277.056 527.605 276.461 528.614 276.01 529.69C275.325 531.508 275.325 533.512 276.01 535.33L276.08 535.52L275.91 535.63C273.591 537.127 271.913 539.434 271.2 542.1C270.954 543.151 270.804 544.222 270.75 545.3C270.669 545.021 270.635 544.73 270.65 544.44C270.639 543.629 270.726 542.82 270.91 542.03C271.548 539.229 273.247 536.784 275.65 535.21L275.55 535.51C274.826 533.575 274.826 531.444 275.55 529.51C276.011 528.403 276.631 527.369 277.39 526.44C277.998 525.544 278.382 524.515 278.51 523.44C278.63 521.534 279.328 519.71 280.51 518.21C281.216 517.147 282.103 516.216 283.13 515.46C283.407 515.252 283.709 515.08 284.03 514.95C284.119 514.905 284.213 514.871 284.31 514.85Z" fill="#EB996E"/>
<path d="M297.15 520.83C295.87 520.996 294.57 520.858 293.353 520.427C292.137 519.996 291.04 519.284 290.15 518.35C290.25 518.23 291.59 519.26 293.52 519.93C295.45 520.6 297.15 520.68 297.15 520.83Z" fill="#EB996E"/>
<path d="M300.57 535.6C298.639 535.058 296.761 534.342 294.96 533.46C293.089 532.741 291.282 531.865 289.56 530.84C291.486 531.396 293.363 532.112 295.17 532.98C297.041 533.698 298.848 534.575 300.57 535.6Z" fill="#EB996E"/>
<path d="M288.54 542.9C286.599 542.242 284.702 541.46 282.86 540.56C283.904 540.606 284.926 540.872 285.86 541.34C286.857 541.658 287.771 542.19 288.54 542.9Z" fill="#EB996E"/>
<path d="M298.73 536.55C297.869 537.012 297.112 537.645 296.505 538.41C295.898 539.175 295.454 540.057 295.2 541C295.13 541 295.07 540.65 295.2 540.09C295.342 539.356 295.657 538.668 296.12 538.081C296.583 537.495 297.18 537.028 297.86 536.72C298.35 536.51 298.71 536.49 298.73 536.55Z" fill="#EB996E"/>
<path d="M304.09 528.44C304.15 528.58 303.17 529.08 302.51 530.2C302.174 530.911 301.893 531.646 301.67 532.4C301.528 531.987 301.49 531.546 301.56 531.115C301.63 530.684 301.805 530.277 302.07 529.93C302.83 528.65 304.07 528.3 304.09 528.44Z" fill="#EB996E"/>
<path d="M302.58 513.75C302.53 513.75 302.33 513.52 302.18 513.04C302 512.386 302 511.695 302.18 511.04C302.354 510.394 302.7 509.806 303.18 509.34C303.54 508.99 303.84 508.87 303.87 508.92C303.393 509.618 303.007 510.374 302.72 511.17C302.571 512.021 302.524 512.888 302.58 513.75Z" fill="#EB996E"/>
<path d="M410.69 518.35C410.69 518.35 410.02 505.23 396.42 502.51C382.82 499.79 359 511.35 359 511.35L292.26 557.86L294.26 563.61L362 554.17L368.2 556.55L415.78 525.29L460.68 492.83L455.68 488.92C455.68 488.92 443.1 497.59 434.78 501.32C426.46 505.05 414.43 511.59 410.69 518.35Z" fill="#F5F5F5"/>
<path d="M291.23 565.51L347.71 530.42L407.42 520.83C407.42 520.83 410.42 525.17 415.49 524.11L464.59 490.11L465.52 492.16L370.3 559.06C368.902 559.571 367.39 559.69 365.929 559.404C364.468 559.119 363.113 558.44 362.01 557.44L291.23 565.51Z" fill="#455A64"/>
<path d="M407.42 520.83C407.285 520.977 407.13 521.105 406.96 521.21L405.58 522.21C404.38 523.07 402.65 524.32 400.58 525.9C396.34 529.05 390.58 533.54 384.36 538.63C378.14 543.72 372.55 548.45 368.55 551.9L363.78 556L362.48 557.1C362.339 557.24 362.181 557.361 362.01 557.46C362.01 557.46 362.13 557.3 362.41 557.03L363.64 555.85C364.72 554.85 366.29 553.39 368.27 551.64C372.21 548.12 377.74 543.36 383.99 538.25C390.24 533.14 395.99 528.7 400.32 525.62C402.46 524.07 404.23 522.87 405.47 522.06L406.9 521.14C407.063 521.021 407.238 520.917 407.42 520.83Z" fill="#263238"/>
<path d="M406.81 513.53C401.4 507.72 392.88 505.65 384.96 506.27C377.04 506.89 369.53 509.84 362.14 512.77L293.05 560.06L293.67 561.84L363.13 514.84C363.13 514.84 378.65 509.84 385.52 508.98C397 507.55 406.81 513.53 406.81 513.53Z" fill="#E0E0E0"/>
<path d="M417.65 519.75L450.87 497.34C450.87 497.34 423.65 511.5 417.65 519.75Z" fill="#E0E0E0"/>
<path d="M293.05 560.06C293.135 559.974 293.229 559.896 293.33 559.83L294.19 559.22L297.5 556.89L309.74 548.41L350.24 520.6L362 512.6C368.692 509.581 375.753 507.459 383 506.29C388.854 505.463 394.823 506.305 400.22 508.72C402.238 509.659 404.098 510.907 405.73 512.42C406.951 513.558 407.99 514.877 408.81 516.33C409.326 517.241 409.729 518.212 410.01 519.22C410.08 519.55 410.14 519.81 410.19 520.01C410.212 520.099 410.229 520.189 410.24 520.28C409.881 518.931 409.35 517.634 408.66 516.42C407.82 515.004 406.775 513.721 405.56 512.61C403.923 511.144 402.076 509.93 400.08 509.01C394.735 506.687 388.848 505.897 383.08 506.73C375.891 507.908 368.886 510.016 362.24 513H362.29L350.53 521L310 548.71L297.66 557.06L294.3 559.3L293.41 559.88C293.297 559.952 293.176 560.013 293.05 560.06Z" fill="#263238"/>
<path d="M353.53 524.31C353.687 524.179 353.863 524.072 354.05 523.99C354.4 523.8 354.92 523.51 355.59 523.17C356.94 522.47 358.91 521.49 361.39 520.37C367.821 517.356 374.645 515.265 381.66 514.16C388.712 513.096 395.918 513.754 402.66 516.08C404.686 516.811 406.633 517.746 408.47 518.87C409.13 519.25 409.6 519.62 409.93 519.87C410.105 519.978 410.269 520.101 410.42 520.24C410.42 520.24 409.69 519.82 408.37 519.07C406.51 518.025 404.558 517.152 402.54 516.46C395.829 514.259 388.695 513.659 381.71 514.71C374.745 515.811 367.956 517.829 361.52 520.71C359.03 521.79 357.04 522.71 355.66 523.36L354.08 524.09C353.904 524.181 353.72 524.255 353.53 524.31Z" fill="#263238"/>
<path d="M458.9 491.42C458.9 491.42 458.76 491.55 458.47 491.75L457.18 492.61L452.39 495.69C448.33 498.29 442.74 501.88 436.61 505.92C430.48 509.96 425 513.67 421 516.37L416.27 519.55L414.97 520.4C414.825 520.506 414.667 520.594 414.5 520.66C414.624 520.529 414.761 520.412 414.91 520.31L416.16 519.38C417.24 518.58 418.82 517.45 420.79 516.06C424.73 513.29 430.21 509.52 436.35 505.48C442.49 501.44 448.12 497.9 452.22 495.38C454.27 494.12 455.94 493.12 457.1 492.44L458.45 491.66C458.592 491.566 458.743 491.486 458.9 491.42Z" fill="#263238"/>
<path d="M428.68 527.38C428.002 529.013 427.139 530.563 426.11 532C424.83 533.52 420.65 535.64 420.32 538.53C419.99 541.42 420.67 548.2 416.15 553.36C413.236 556.57 409.549 558.98 405.44 560.36L387.61 558.62L359.13 547.41C358.493 547.249 357.946 546.844 357.605 546.283C357.265 545.722 357.159 545.049 357.31 544.41C357.487 543.715 357.866 543.089 358.401 542.612C358.935 542.134 359.6 541.827 360.31 541.73L360.99 541.62C360.99 541.62 359.35 540.28 361.7 537.93C363.7 535.93 367.97 537.06 370.17 537.79C372.37 538.52 385.27 543.91 387.58 544.74C389.63 545.47 391.21 546.12 391.21 546.12C391.21 546.12 374.7 534.98 374.47 533.52C374.2 531.77 374.38 530.97 376.07 529.75C378.07 528.3 381.35 529.85 384.53 531.19C386.9 532.19 402.01 539.65 402.01 539.65C402.01 539.65 402.69 538.99 402.01 537.65C401.33 536.31 396.31 529.85 395.52 528.65C394.73 527.45 394.52 526.77 395.31 525.76C396.41 524.33 399.31 523.65 401.98 526.09C403.67 527.65 409.68 531.69 409.68 531.69L437.42 511.45C437.42 511.45 440.87 511.36 439.67 516.17C438.47 520.98 428.68 527.38 428.68 527.38Z" fill="#FFBE9D"/>
<path d="M408 544.25C406.89 544.003 405.856 543.493 404.986 542.762C404.116 542.031 403.434 541.1 403 540.05C403.13 539.97 403.94 541.21 405.32 542.36C406.7 543.51 408.07 544.1 408 544.25Z" fill="#EB996E"/>
<path d="M410.28 532.18C410.28 532.12 410.65 532.01 411.28 532.09C412.066 532.204 412.805 532.532 413.417 533.038C414.029 533.545 414.49 534.209 414.75 534.96C414.94 535.54 414.91 535.96 414.84 535.96C414.421 535.026 413.823 534.184 413.08 533.48C412.24 532.869 411.289 532.427 410.28 532.18Z" fill="#EB996E"/>
<path d="M411.59 537.75C411.44 537.75 411.37 536.26 410.78 534.56C410.19 532.86 409.36 531.61 409.48 531.56C410.359 532.309 410.984 533.311 411.27 534.43C411.717 535.477 411.829 536.637 411.59 537.75Z" fill="#EB996E"/>
<path d="M428 525.94C428 525.99 427.65 525.79 427.29 525.31C426.834 524.673 426.548 523.929 426.461 523.15C426.373 522.371 426.487 521.583 426.79 520.86C427.03 520.32 427.3 520.05 427.35 520.09C426.994 521.048 426.867 522.076 426.98 523.092C427.093 524.108 427.442 525.083 428 525.94Z" fill="#EB996E"/>
<path d="M402.93 551.23C402.288 551.377 401.622 551.377 400.98 551.23C399.426 550.955 397.935 550.399 396.58 549.59C395.231 548.797 393.962 547.876 392.79 546.84C392.268 546.457 391.806 545.999 391.42 545.48C391.995 545.769 392.533 546.128 393.02 546.55C394.239 547.491 395.515 548.356 396.84 549.14C398.152 549.917 399.57 550.5 401.05 550.87C402.19 551.11 402.93 551.15 402.93 551.23Z" fill="#EB996E"/>
<path d="M407.57 548.37C407.71 548.37 407.72 549.37 406.88 550.2C406.04 551.03 405.02 550.99 405.04 550.85C405.06 550.71 405.83 550.51 406.51 549.85C407.19 549.19 407.42 548.35 407.57 548.37Z" fill="#EB996E"/>
<path d="M414.38 543.37C414.44 543.37 414.44 543.64 414.25 544C413.987 544.443 413.592 544.793 413.12 545C412.652 545.228 412.124 545.304 411.61 545.22C411.21 545.14 411.01 544.98 411.04 544.92C411.07 544.86 411.96 545 412.9 544.53C413.84 544.06 414.24 543.32 414.38 543.37Z" fill="#EB996E"/>
<path d="M390.36 554.72C390.31 554.85 383.68 552.09 375.56 548.54C367.44 544.99 360.9 542 361 541.88C361.1 541.76 367.69 544.52 375.81 548.07C383.93 551.62 390.42 554.59 390.36 554.72Z" fill="#EB996E"/>
<path d="M507.16 563.64C507.16 563.78 406.34 563.9 282.01 563.9C157.68 563.9 56.84 563.78 56.84 563.64C56.84 563.5 157.64 563.38 282.01 563.38C406.38 563.38 507.16 563.49 507.16 563.64Z" fill="black"/>
<path d="M69.72 457.11L91.42 563.64H279.77C280.767 563.64 281.724 563.244 282.429 562.539C283.134 561.833 283.53 560.877 283.53 559.88C283.531 559.385 283.435 558.895 283.247 558.438C283.058 557.981 282.782 557.565 282.432 557.215C282.083 556.864 281.668 556.587 281.211 556.397C280.754 556.207 280.265 556.11 279.77 556.11H241.85L221.73 457C221.544 456.075 221.044 455.243 220.315 454.643C219.587 454.044 218.674 453.714 217.73 453.71L73.8 452.17C73.1859 452.164 72.5781 452.295 72.0211 452.553C71.4641 452.812 70.9721 453.192 70.5809 453.666C70.1898 454.14 69.9095 454.695 69.7606 455.291C69.6116 455.886 69.5978 456.508 69.72 457.11Z" fill="#E0E0E0"/>
<path d="M69.72 457.11L69.66 456.79C69.6193 456.458 69.6193 456.122 69.66 455.79C69.7311 455.152 69.9486 454.54 70.2955 454.001C70.6425 453.461 71.1095 453.009 71.66 452.68C72.0424 452.445 72.4616 452.276 72.9 452.18C73.3889 452.099 73.8849 452.068 74.38 452.09H77.77L86.25 452.16L140.68 452.67L178.62 453.06L199.88 453.27L211.02 453.39L216.72 453.45C217.21 453.45 217.66 453.45 218.18 453.45C218.688 453.507 219.182 453.653 219.64 453.88C220.563 454.33 221.294 455.097 221.7 456.04C221.887 456.507 222.022 456.993 222.1 457.49L222.39 458.92C222.58 459.92 222.78 460.84 222.98 461.8C223.367 463.727 223.76 465.667 224.16 467.62C224.953 471.52 225.757 475.47 226.57 479.47C228.197 487.47 229.863 495.647 231.57 504C234.96 520.7 238.5 538.07 242.13 556L241.88 555.8H279.17C279.662 555.782 280.154 555.812 280.64 555.89C281.641 556.105 282.521 556.695 283.1 557.54C283.686 558.382 283.925 559.416 283.77 560.43C283.679 561.044 283.447 561.628 283.091 562.137C282.735 562.645 282.266 563.064 281.72 563.36C281.171 563.653 280.562 563.817 279.94 563.84H179.85H91.42H91.26V563.68C84.62 530.93 79.26 504.3 75.49 485.84C73.63 476.62 72.19 469.44 71.21 464.56C70.73 462.12 70.3634 460.27 70.11 459.01C69.86 457.75 69.75 457.11 69.75 457.11C69.75 457.11 69.9 457.75 70.16 458.99C70.42 460.23 70.82 462.11 71.32 464.53C72.32 469.41 73.81 476.58 75.71 485.8C79.49 504.25 84.94 530.87 91.65 563.6L91.45 563.44L179.88 563.39H279.9C280.437 563.369 280.963 563.229 281.44 562.98C281.913 562.72 282.32 562.354 282.631 561.912C282.941 561.47 283.146 560.963 283.23 560.43C283.359 559.544 283.152 558.641 282.65 557.9C282.138 557.17 281.371 556.66 280.5 556.47C280.05 556.402 279.595 556.375 279.14 556.39H241.64V556.19C238.01 538.28 234.48 520.91 231.1 504.19C229.4 495.83 227.733 487.65 226.1 479.65L223.7 467.8C223.31 465.85 222.91 463.91 222.52 461.99C222.33 460.99 222.13 460.06 221.94 459.11L221.65 457.67C221.575 457.206 221.455 456.75 221.29 456.31C221.015 455.679 220.578 455.132 220.023 454.724C219.468 454.317 218.815 454.063 218.13 453.99C217.69 453.99 217.19 453.99 216.72 453.99L211.02 453.92L199.87 453.8L178.62 453.55L140.67 453.1L86.24 452.43L77.77 452.32L74.38 452.27C73.8919 452.24 73.402 452.267 72.92 452.35C72.4904 452.439 72.0782 452.597 71.7 452.82C71.1606 453.135 70.7001 453.569 70.3535 454.089C70.007 454.609 69.7835 455.201 69.7 455.82C69.6603 456.249 69.667 456.682 69.72 457.11Z" fill="#263238"/>
<path d="M150.29 512.08C153.725 512.08 156.51 509.295 156.51 505.86C156.51 502.425 153.725 499.64 150.29 499.64C146.855 499.64 144.07 502.425 144.07 505.86C144.07 509.295 146.855 512.08 150.29 512.08Z" fill="white"/>
<path d="M69.9 458C69.9 458 70.12 458 70.55 458H79.77L106.7 458.13L195.55 458.75L208.4 458.86H211.56C212.099 458.84 212.638 458.873 213.17 458.96C213.984 459.126 214.736 459.513 215.343 460.08C215.95 460.646 216.389 461.37 216.61 462.17C216.85 463.17 217.02 464.17 217.23 465.17L221.82 488.31C224.73 503.06 227.36 516.31 229.56 527.5C231.76 538.69 233.56 547.67 234.74 553.92C235.34 557.03 235.8 559.45 236.12 561.11C236.27 561.92 236.39 562.55 236.47 562.99C236.55 563.43 236.57 563.63 236.57 563.63C236.57 563.63 236.51 563.42 236.42 563C236.33 562.58 236.19 561.94 236.02 561.13L234.54 554C233.28 547.75 231.46 538.74 229.2 527.61C226.94 516.48 224.3 503.18 221.35 488.44C219.88 481.07 218.35 473.33 216.73 465.31C216.52 464.31 216.34 463.31 216.12 462.31C215.856 461.36 215.251 460.541 214.42 460.01C214.008 459.746 213.55 459.563 213.07 459.47C212.568 459.388 212.058 459.358 211.55 459.38H208.4L195.55 459.28L106.7 458.5L79.77 458.2L72.45 458H70.54H69.9Z" fill="#263238"/>
</svg>
