<svg width="940" height="892" viewBox="0 0 940 892" fill="none" xmlns="http://www.w3.org/2000/svg">
<defs>
<linearGradient id="paint0_linear" x1="470" y1="0" x2="470" y2="891.5" gradientUnits="userSpaceOnUse">
<stop stop-color="#F08686"/>
<stop offset="1" stop-color="#B586F0"/>
</linearGradient>
<linearGradient id="paint1_linear" x1="538.169" y1="254.925" x2="538.169" y2="633.983" gradientUnits="userSpaceOnUse">
<stop stop-color="#F08686"/>
<stop offset="1" stop-color="#B586F0"/>
</linearGradient>
</defs>
<path d="M175.5 287.5C71.3664 207.13 0 0 0 0H940V891.5C940 891.5 550.152 855.642 496 669.5C463.799 558.814 596.993 481.635 545.5 378.5C479.031 245.371 293.296 378.415 175.5 287.5Z" fill="url(#paint0_linear)"/>
<path d="M244.825 338.581C244.825 338.581 705.309 221.625 653.88 264.289C602.451 306.953 491.779 335.729 570.717 335.465C649.656 335.201 836.944 317.09 752.302 388.478C667.661 459.866 649.867 460.341 720.621 479.509C791.376 498.676 1011.98 603.857 592.525 629.307C173.068 654.81 347.102 567.687 347.102 567.687C347.102 567.687 444.733 525.076 327.671 481.99C218.425 425.492 219.375 376.123 258.448 370.103C297.521 364.084 515.857 356.058 244.825 338.581Z" fill="url(#paint1_linear)"/>
<path d="M833.353 586.221C833.3 586.01 829.445 566.368 811.282 544.085C794.543 523.493 761.859 496.405 701.296 484.155C663.807 476.552 644.27 466.519 641.472 453.372C639.624 444.712 644.851 434.891 657.84 422.536C669.245 411.711 685.508 400.148 701.19 388.954C711.539 381.561 722.258 373.958 731.604 366.513C743.062 357.431 747.814 351.095 746.177 347.188C742.111 337.578 699.712 342.963 646.065 349.828C622.093 352.89 594.953 356.375 568.289 358.804C533.598 362.025 518.18 361.391 516.807 356.692C514.906 350.197 541.307 336.522 581.225 315.823C602.293 304.893 626.212 292.485 651.979 278.07C673.839 265.873 683.924 257.002 682.023 251.775C675.581 234.192 539.564 260.487 538.192 260.751L538.086 260.223C543.736 259.114 675.951 233.558 682.498 251.564C684.558 257.161 674.631 265.978 652.243 278.492C626.476 292.907 602.557 305.316 581.489 316.246C543.208 336.099 515.54 350.461 517.335 356.533C518.602 360.81 534.76 361.338 568.236 358.276C594.901 355.794 622.041 352.362 646.013 349.3C699.87 342.435 742.428 336.997 746.652 346.976C748.395 351.148 743.59 357.642 731.921 366.935C722.575 374.38 711.856 381.984 701.454 389.376C670.248 411.606 637.934 434.574 641.894 453.266C644.64 466.15 664.071 476.129 701.349 483.627C728.172 489.066 751.827 497.831 771.627 509.658C787.521 519.163 800.985 530.621 811.651 543.768C829.868 566.156 833.775 585.904 833.775 586.115L833.353 586.221Z" fill="#1A1A1A"/>
<path d="M234.159 434.786C216.365 415.09 210.029 398.669 215.415 385.997C220.484 374.064 235.902 365.351 261.194 360.177C282.79 355.741 306.339 354.949 317.692 354.527C323.077 354.316 323.764 353.893 323.869 353.735C322.813 351.148 261.088 343.439 219.85 338.898L218.847 338.792L219.797 338.422C306.815 302.359 490.089 266.454 491.937 266.084L492.043 266.612C490.195 266.982 308.346 302.623 220.959 338.528C226.028 339.109 249.208 341.696 272.124 344.653C324.503 351.359 324.45 353.101 324.45 353.893C324.45 354.369 323.922 354.949 317.797 355.161C306.498 355.53 282.948 356.375 261.405 360.81C236.271 365.985 221.012 374.539 215.996 386.314C210.715 398.775 216.999 415.038 234.635 434.574L234.159 434.786Z" fill="#1A1A1A"/>
<path d="M580.645 638.388H506.194V641.821H580.645V638.388Z" fill="#272727"/>
<path d="M574.995 635.009H509.415V638.388H574.995V635.009Z" fill="#FDDFD2"/>
<path d="M446.739 454.269C446.739 454.269 500.175 534.475 509.362 576.294L475.991 643.405L446.739 454.269Z" fill="#CB7B7B"/>
<path d="M547.538 620.7L476.044 643.405L488.928 521.169H554.666L547.538 620.7Z" fill="#FDDFD2"/>
<path d="M339.552 420.582L274.553 458.705C274.553 458.705 210.24 580.518 218.583 621.387L268.428 643.405H476.044C476.044 643.405 471.292 478.453 446.792 454.269L390.769 424.648L339.552 420.582Z" fill="#E28686"/>
<path d="M390.717 405.058V424.648C390.717 424.648 377.305 447.088 339.552 420.582L352.805 345.709L388.552 401.784L390.717 405.058Z" fill="#FFC7BB"/>
<path d="M390.717 405.058V418.311C382.163 417.836 356.659 412.978 356.607 371.054L388.604 401.732L390.717 405.058Z" fill="#C98272"/>
<path d="M418.173 345.023C418.173 345.023 412.312 400.57 390.717 405.111C385.753 406.167 379.892 404.477 373.134 398.775C363.207 390.432 357.135 378.446 355.709 365.562C353.544 346.712 356.923 328.02 356.923 328.02L407.93 342.171L418.173 345.023Z" fill="#FFC7BB"/>
<path d="M511.421 626.931L522.14 635.221L515.646 623.182L511.421 626.931Z" fill="#2E1212"/>
<path d="M456.824 556.229L454.448 558.236C453.762 558.817 452.706 558.764 452.072 558.025L448.006 553.273C447.426 552.586 447.478 551.53 448.218 550.897L450.594 548.89C451.28 548.309 452.336 548.362 452.97 549.101L457.036 553.853C457.616 554.54 457.564 555.596 456.824 556.229Z" fill="#2E1212"/>
<path d="M453.234 551.688L450.171 554.328C449.274 555.12 447.901 555.015 447.109 554.064L443.677 550.052C442.885 549.154 442.99 547.781 443.941 546.989L447.003 544.349C447.901 543.557 449.274 543.663 450.066 544.613L453.498 548.626C454.29 549.524 454.184 550.949 453.234 551.688Z" fill="#FB2257"/>
<path d="M515.065 624.08L512.002 626.72C511.105 627.512 509.732 627.406 508.94 626.456L450.33 557.708C449.538 556.81 449.643 555.437 450.594 554.645L453.656 552.005C454.554 551.213 455.927 551.319 456.719 552.269L515.329 621.017C516.121 621.915 515.962 623.288 515.065 624.08Z" fill="#F8CA7A"/>
<path d="M529.955 581.68C529.955 581.68 553.927 567.371 555.669 567.899C557.412 568.427 556.514 576.241 556.514 576.241C556.514 576.241 531.011 590.867 529.955 581.68Z" fill="#FFC7BB"/>
<path d="M529.744 590.762C529.744 590.762 529.638 585.006 553.504 588.069C553.504 588.069 554.296 594.3 548.119 593.93C541.941 593.56 531.909 594.722 529.744 590.762Z" fill="#FFC7BB"/>
<path d="M529.955 595.831C529.955 595.831 548.224 592.346 553.135 595.039C553.135 595.039 554.455 600.161 550.019 600.794C545.584 601.428 529.215 603.065 529.955 595.831Z" fill="#FFC7BB"/>
<path d="M556.514 576.241L550.019 584.742V579.621L556.514 576.241Z" fill="#C98272"/>
<path d="M308.029 515.255C308.029 515.255 304.861 555.913 281.998 589.547L370.705 614.892C370.652 614.945 357.663 556.546 308.029 515.255Z" fill="#CB7B7B"/>
<path d="M507.989 591.871C507.303 586.643 479.582 586.274 474.883 586.643C470.183 587.066 432.958 611.882 428.575 612.938C425.302 613.73 415.217 611.566 410.359 610.457C408.352 609.982 406.293 609.559 404.234 609.242L275.081 587.963C270.17 586.274 264.679 585.27 258.871 585.27C237.328 585.27 219.797 598.524 219.797 614.892V615.262C220.061 631.472 237.433 644.514 258.871 644.514C259.663 644.514 260.402 644.514 261.194 644.461L407.56 640.923H407.719L426.675 640.448C436.126 647.788 472.718 634.851 472.718 634.851L495.264 637.122C503.131 635.274 498.485 628.832 498.485 628.832C509.045 628.832 503.026 619.222 503.026 619.222C503.026 619.222 504.768 618.905 505.613 615.737C509.309 619.011 512.9 618.43 512.9 618.43C512.9 618.43 508.676 597.098 507.989 591.871ZM484.017 597.89L498.749 601.639C499.066 603.065 499.383 604.385 499.752 605.599C493.469 601.533 484.598 598.101 484.017 597.89Z" fill="#FFC7BB"/>
<path d="M472.77 634.851C472.77 634.851 436.126 647.788 426.727 640.448L407.771 640.923H407.613L261.247 644.461C260.455 644.514 259.715 644.514 258.923 644.514C237.539 644.514 220.114 631.472 219.85 615.262C230.886 625.083 254.224 638.231 297.257 633.267C363.629 625.664 463.952 626.192 472.77 634.851Z" fill="#C98272"/>
<path d="M295.145 567.001L293.667 566.42C303.33 541.814 308.082 520.694 307.659 503.639C307.343 489.91 303.699 478.717 296.888 470.427C283.74 454.533 263.676 454.956 263.464 455.009L263.095 453.477C264.732 453.055 284.057 453.53 297.205 468.367C304.65 476.816 308.715 488.274 309.243 502.477C309.877 519.955 305.125 541.656 295.145 567.001Z" fill="#5C5C5C"/>
<path d="M418.173 345.023C418.173 345.023 412.312 400.57 390.717 405.111C390.717 405.111 411.837 366.988 407.93 342.171L418.173 345.023Z" fill="#C98272"/>
<path d="M361.57 343.491C361.57 343.491 440.456 368.519 441.195 312.338C441.987 256.157 421.553 318.727 409.303 306.741C397.053 294.755 359.458 280.182 357.24 314.662C357.24 314.662 341.4 298.821 349.32 351.94C352.118 361.602 361.57 343.491 361.57 343.491Z" fill="#1A1A1A"/>
<path d="M353.65 349.775C353.65 349.775 340.396 325.433 343.617 348.56C346.838 371.74 349.426 369.364 353.65 349.775Z" fill="#FFC7BB"/>
<path d="M349.69 347.821C349.69 347.821 342.878 336.416 346.205 351.887C349.531 367.358 351.063 350.884 351.063 350.884L347.472 352.52L349.69 347.821Z" fill="#C98272"/>
<path d="M370.177 444.237C362.679 444.237 356.184 442.547 351.063 440.435C338.232 435.102 330.892 426.337 330.575 425.968L331.79 424.964C331.843 425.07 339.182 433.888 351.696 439.01C363.207 443.762 381.582 446.243 403.917 431.248L404.815 432.568C391.825 441.333 380.103 444.237 370.177 444.237Z" fill="#5C5C5C"/>
<path d="M399.271 336.997C393.568 336.997 387.232 336.046 380.315 334.145L380.473 333.617C397.95 338.37 411.521 337.102 420.814 329.763C434.436 319.044 433.961 298.821 433.961 298.663H434.489C434.489 298.874 434.912 319.361 421.13 330.238C415.375 334.726 408.088 336.997 399.271 336.997Z" fill="white"/>
<path d="M365.372 315.823L364.844 315.665C366.797 309.593 370.23 305.421 375.087 303.362C380.103 301.197 389.344 300.194 404.656 307.586C405.026 307.745 405.29 307.903 405.343 307.903L405.29 308.061V308.431C405.184 308.431 405.132 308.378 404.392 308.061C389.238 300.722 380.209 301.725 375.246 303.837C370.652 305.844 367.273 309.857 365.372 315.823Z" fill="white"/>
<path d="M395.099 329.288C391.297 329.288 387.179 328.918 382.796 328.232L382.902 327.704C398.795 330.185 410.94 328.126 419.018 321.579C427.889 314.398 428.523 304.154 428.523 304.101L429.051 304.154C429.051 304.26 428.417 314.714 419.388 322.054C413.369 326.859 405.237 329.288 395.099 329.288Z" fill="white"/>
<path d="M535.604 606.021C535.604 606.021 550.495 598.999 555.3 599.738C555.3 599.738 557.517 603.065 553.821 604.649C550.178 606.233 536.449 611.46 535.604 606.021Z" fill="#FFC7BB"/>
<path d="M874.064 647.471H203.798C202.267 647.471 201 646.203 201 644.672C201 643.141 202.267 641.874 203.798 641.874H874.011C875.542 641.874 876.81 643.141 876.81 644.672C876.862 646.203 875.595 647.471 874.064 647.471Z" fill="#272727"/>
<path d="M689.31 635.802H793.435C794.861 635.802 796.128 634.904 796.656 633.584L818.621 574.816C819.466 572.598 817.829 570.222 815.4 570.222H710.959C709.533 570.222 708.266 571.12 707.738 572.44L686.142 631.208C685.297 633.478 686.934 635.802 689.31 635.802Z" fill="#272727"/>
<path d="M817.249 578.3L796.603 633.531C796.075 634.904 794.755 635.854 793.277 635.854H692.795C690.313 635.854 688.624 633.373 689.469 631.049L697.23 610.193L710.061 575.819C710.589 574.446 711.909 573.496 713.388 573.496H813.87C816.404 573.496 818.146 575.977 817.249 578.3Z" fill="#FF3262"/>
<path d="M794.333 640.923H690.313C688.888 640.923 687.779 639.762 687.779 638.389C687.779 636.963 688.941 635.854 690.313 635.854H794.333C795.759 635.854 796.867 637.016 796.867 638.389C796.867 639.762 795.759 640.923 794.333 640.923Z" fill="#DBBEBF"/>
<path d="M687.832 640.923H591.944C590.518 640.923 589.409 639.762 589.409 638.389C589.409 636.963 590.571 635.854 591.944 635.854H687.832C689.257 635.854 690.366 637.016 690.366 638.389C690.419 639.762 689.257 640.923 687.832 640.923Z" fill="#272727"/>
<path d="M817.249 578.3L796.603 633.531C796.075 634.904 794.755 635.854 793.277 635.854H692.795C690.313 635.854 688.624 633.373 689.469 631.049L697.23 610.193L768.302 573.496H813.87C816.404 573.496 818.146 575.977 817.249 578.3Z" fill="#DD2F57"/>
<path d="M614.754 315.876L602.61 351.887H652.138L640.891 315.876H614.754Z" fill="#FF3262"/>
<path d="M621.513 296.339L605.62 315.876H648.231L633.235 296.339H621.513Z" fill="#272727"/>
<path d="M633.235 278.281H621.513V296.392H633.235V278.281Z" fill="#272727"/>
<path d="M626.951 315.876V351.887H652.138L640.891 315.876H626.951Z" fill="#DD2F57"/>
<path d="M627.744 180.598H626.159V287.31H627.744V180.598Z" fill="#272727"/>
<path d="M698.076 342.383L685.931 378.393H735.459L724.212 342.383H698.076Z" fill="#FF3262"/>
<path d="M704.834 322.846L688.941 342.382H731.552L716.556 322.846H704.834Z" fill="#272727"/>
<path d="M716.556 304.788H704.834V322.899H716.556V304.788Z" fill="#272727"/>
<path d="M710.22 342.383V378.393H735.459L724.212 342.383H710.22Z" fill="#DD2F57"/>
<path d="M711.012 207.104H709.428V313.817H711.012V207.104Z" fill="#272727"/>
<path d="M782.664 430.773V380.347H829.446L782.664 430.773ZM783.192 380.875V429.453L828.231 380.875H783.192Z" fill="#1A1A1A"/>
<path d="M600.181 434.627L601.237 434.521L599.653 421.479L598.597 421.585L599.336 427.868C597.963 426.812 581.7 414.298 564.857 417.097C555.827 418.628 548.118 424.172 542.046 433.729C540.04 431.881 532.014 425.281 521.242 425.968C511.685 426.548 502.551 432.621 494.155 443.92L493.574 444.712L492.729 437.69L491.673 437.795L493.257 450.837L494.313 450.732L493.627 444.976L599.494 428.924L600.181 434.627ZM495.792 443.498C503.818 433.149 512.372 427.604 521.348 427.024C521.876 426.971 522.351 426.971 522.879 426.971C534.02 426.971 541.782 434.838 541.835 434.944L542.31 435.419L542.68 434.838C548.646 425.228 556.197 419.631 565.068 418.153C579.747 415.724 594.056 425.228 597.858 428.027L495.792 443.498Z" fill="white"/>
<path d="M573.886 448.356L556.567 487.904C556.567 487.904 556.25 496.828 571.087 502.741C585.925 508.655 599.759 515.942 603.402 520.536L622.199 481.304C622.199 481.304 609.58 473.489 602.082 472.433C594.743 471.43 573.886 448.356 573.886 448.356Z" fill="#FDDFD2"/>
<path d="M812.761 230.179L795.442 269.727C795.442 269.727 795.125 278.651 809.962 284.565C824.799 290.478 838.633 297.765 842.277 302.359L861.074 263.127C861.074 263.127 848.455 255.312 840.957 254.256C833.617 253.253 812.761 230.179 812.761 230.179Z" fill="#FDDFD2"/>
<path d="M226.292 263.074L230.146 253.148L201.264 233.981L226.292 263.074Z" fill="#1A1A1A"/>
<path d="M230.146 253.148L238.436 250.349L201.264 233.981L230.146 253.148Z" fill="#FDDFD2"/>
<path d="M220.325 256.157L226.292 263.074V254.204L220.325 256.157Z" fill="#1A1A1A"/>
<path d="M201.264 233.981L212.722 258.586L226.292 254.204L201.264 233.981Z" fill="#FDDFD2"/>
<path d="M252.429 301.567C251.478 301.567 250.581 301.461 249.63 301.303C242.872 299.983 238.278 293.963 235.374 289.581C230.886 282.769 227.401 275.377 225.025 267.562L225.553 267.404C227.929 275.166 231.361 282.505 235.849 289.264C240.337 296.128 244.773 299.771 249.736 300.775C257.023 302.2 263.728 297.395 267.108 294.386C269.695 292.115 271.965 289.528 273.919 286.729C272.071 282.347 271.226 277.489 271.437 272.737C271.543 270.731 272.229 267.879 273.972 266.295C274.817 265.556 275.767 265.186 276.823 265.239C278.038 265.292 279.041 265.873 279.78 266.929C281.259 269.041 281.153 272.79 280.308 275.324C278.935 279.443 276.982 283.297 274.553 286.835C275.081 288.102 275.714 289.317 276.401 290.478C278.143 293.382 281.047 296.973 285.219 297.765C288.756 298.399 292.347 296.815 295.093 295.336C308.24 288.314 318.325 276.592 328.041 265.239C338.601 252.989 349.478 240.264 364.316 233.611C377.569 227.644 392.459 227.116 407.824 227.064C417.434 227.011 426.674 227.433 433.855 232.661C437.921 235.617 440.825 239.842 443.677 243.96C446.739 248.395 449.907 252.989 454.448 255.84C460.626 259.695 469.391 260.065 477.839 256.844C485.496 253.887 491.99 248.659 498.274 243.643L544.264 206.682L544.581 207.105L498.59 244.066C492.307 249.135 485.76 254.362 478.051 257.372C469.444 260.698 460.573 260.276 454.237 256.316C449.59 253.412 446.37 248.765 443.307 244.277C440.509 240.211 437.604 235.987 433.644 233.083C426.622 227.961 417.487 227.592 407.93 227.592C392.617 227.644 377.78 228.172 364.632 234.086C349.901 240.686 339.076 253.359 328.569 265.556C318.801 276.908 308.715 288.683 295.462 295.759C292.664 297.237 288.968 298.874 285.271 298.24C280.889 297.448 277.879 293.699 276.084 290.742C275.45 289.634 274.817 288.472 274.341 287.31C272.388 290.056 270.17 292.538 267.636 294.808C264.415 297.501 258.818 301.567 252.429 301.567ZM276.559 265.767C275.714 265.767 274.922 266.084 274.289 266.665C272.705 268.09 272.018 270.836 271.913 272.737C271.701 277.278 272.493 281.925 274.236 286.201C276.559 282.769 278.407 279.073 279.727 275.113C280.519 272.684 280.625 269.199 279.305 267.193C278.671 266.295 277.826 265.82 276.77 265.767C276.665 265.767 276.612 265.767 276.559 265.767Z" fill="#1A1A1A"/>
<path d="M491.405 335.669L449.694 354.15L475.383 412.13L517.094 393.649L491.405 335.669Z" fill="#FDDFD2"/>
<path d="M888.058 366.549L767.354 475.544L780.2 489.769L900.904 380.775L888.058 366.549Z" fill="#FDDFD2"/>
<path d="M770.361 484.472L770.044 484.049L891.172 378.024L896.663 384.729L896.24 385.046L891.066 378.763L770.361 484.472Z" fill="#1A1A1A"/>
<path d="M853.294 423.867L846.993 417.035L846.605 417.393L852.906 424.225L853.294 423.867Z" fill="#1A1A1A"/>
<path d="M798.283 473.476L791.632 465.478L791.226 465.816L797.877 473.814L798.283 473.476Z" fill="#1A1A1A"/>
<path d="M801.807 470.368L794.964 462.604L794.568 462.953L801.411 470.717L801.807 470.368Z" fill="#1A1A1A"/>
<path d="M894.233 386.925L889.068 380.239L888.65 380.562L893.815 387.248L894.233 386.925Z" fill="#1A1A1A"/>
<path d="M616.233 589.864L598.861 559.503L632.337 540.389L649.709 570.75L616.233 589.864ZM599.6 559.661L616.444 589.125L648.97 570.539L632.126 541.075L599.6 559.661Z" fill="#1A1A1A"/>
<path d="M613.698 612.147C602.504 612.147 593.369 603.012 593.369 591.818C593.369 580.624 602.504 571.489 613.698 571.489C624.892 571.489 634.027 580.624 634.027 591.818C634.027 603.012 624.892 612.147 613.698 612.147ZM613.698 572.017C602.768 572.017 593.897 580.888 593.897 591.818C593.897 602.748 602.768 611.618 613.698 611.618C624.628 611.618 633.499 602.748 633.499 591.818C633.499 580.888 624.628 572.017 613.698 572.017Z" fill="#1A1A1A"/>
<path d="M692.056 564.836L648.283 539.808L671.516 499.151L692.056 564.836ZM648.97 539.597L691.158 563.674L671.358 500.471L648.97 539.597Z" fill="#1A1A1A"/>
</svg>
